<?xml version="1.0" encoding="utf-8" ?>	<!-- Generator: Assembly 2.4 - http://assemblyapp.co -->	<svg version="1.1" xmlns="http://www.w3.org/2000/svg" xmlns:xlink="http://www.w3.org/1999/xlink" width="4096.00" height="4096.00" viewBox="0 0 4096.0 4096.0">		<g id="document" transform="scale(13.653333333333334 13.653333333333334) translate(150.0 150.0)">			<path d="M326.167,-308.459 C393.484,-302.561 452.753,-352.281 458.651,-419.598 C464.55,-486.915 414.83,-546.184 347.513,-552.083 C280.196,-557.981 220.927,-508.261 215.028,-440.944 C209.13,-373.627 258.85,-314.358 326.167,-308.459 Z " fill="#000f4e" fill-opacity="1.00" />			<path d="M-2235.47,-1244.74 C-2251.5,-1254 -2272.14,-1248.47 -2281.39,-1232.44 L-2331.72,-1145.26 C-2340.98,-1129.24 -2335.45,-1108.6 -2319.42,-1099.34 C-2303.4,-1090.09 -2282.76,-1095.62 -2273.5,-1111.65 L-2223.17,-1198.83 C-2213.92,-1214.85 -2219.45,-1235.49 -2235.47,-1244.74 Z " fill="#ebebeb" fill-opacity="1.00" />			<path d="M-905.851,-851.885 C-777.36,-851.885 -673.344,-955.901 -673.344,-1084.39 C-673.344,-1212.88 -777.36,-1316.9 -905.851,-1316.9 C-1034.34,-1316.9 -1138.36,-1212.88 -1138.36,-1084.39 C-1138.36,-955.901 -1034.34,-851.885 -905.851,-851.885 Z " fill="#ffffff" fill-opacity="1.00" />			<path d="M-21.517,-851.885 C106.974,-851.885 210.99,-955.901 210.99,-1084.39 C210.99,-1212.88 106.974,-1316.9 -21.517,-1316.9 C-150.008,-1316.9 -254.024,-1212.88 -254.024,-1084.39 C-254.024,-955.901 -150.008,-851.885 -21.517,-851.885 Z " fill="#ffffff" fill-opacity="1.00" />			<path d="M678.653,-852.483 C807.144,-852.483 911.16,-956.499 911.16,-1084.99 C911.16,-1213.48 807.144,-1317.5 678.653,-1317.5 C550.163,-1317.5 446.147,-1213.48 446.147,-1084.99 C446.147,-956.499 550.163,-852.483 678.653,-852.483 Z " fill="#ffffff" fill-opacity="1.00" />			<path d="M834.255,-124.138 C962.746,-124.138 1066.76,-228.154 1066.76,-356.644 C1066.76,-485.135 962.746,-589.151 834.255,-589.151 C705.765,-589.151 601.748,-485.135 601.748,-356.644 C601.748,-228.154 705.765,-124.138 834.255,-124.138 Z " fill="#ffffff" fill-opacity="1.00" />			<path d="M-1022.09,-1152.9 C-1022.09,-1157.54 -1023.71,-1161.56 -1026.96,-1164.96 C-1030.36,-1168.2 -1034.45,-1169.83 -1039.24,-1169.83 C-1054.39,-1169.83 -1065.75,-1169.83 -1073.33,-1169.83 C-1073.33,-1162.25 -1073.33,-1155.61 -1073.33,-1149.89 C-1073.33,-1144.17 -1073.33,-1139.46 -1073.33,-1135.75 C-1065.75,-1135.75 -1060.03,-1135.75 -1056.17,-1135.75 C-1056.17,-1075 -1056.17,-1029.41 -1056.17,-998.956 C-1041.02,-998.956 -1029.66,-998.956 -1022.09,-998.956 C-1022.09,-1067.27 -1022.09,-1118.59 -1022.09,-1152.9 Z " fill="#0028ff" fill-opacity="1.00" />			<path d="M-1006.32,-1084.39 C-1006.32,-1072.19 -1004.29,-1060.93 -1000.22,-1050.62 C-996.155,-1040.3 -990.507,-1031.41 -983.278,-1023.96 C-976.048,-1016.5 -967.35,-1010.7 -957.183,-1006.56 C-947.017,-1002.42 -935.834,-1000.35 -923.634,-1000.35 C-911.434,-1000.35 -900.251,-1002.42 -890.084,-1006.56 C-879.917,-1010.7 -871.219,-1016.5 -863.99,-1023.96 C-856.76,-1031.41 -851.112,-1040.3 -847.045,-1050.62 C-842.979,-1060.93 -840.946,-1072.19 -840.946,-1084.39 C-840.946,-1096.59 -842.979,-1107.81 -847.045,-1118.05 C-851.112,-1128.3 -856.76,-1137.15 -863.99,-1144.6 C-871.219,-1152.06 -879.917,-1157.89 -890.084,-1162.11 C-900.251,-1166.33 -911.434,-1168.44 -923.634,-1168.44 C-935.834,-1168.44 -947.017,-1166.33 -957.183,-1162.11 C-967.35,-1157.89 -976.048,-1152.06 -983.278,-1144.6 C-990.507,-1137.15 -996.155,-1128.3 -1000.22,-1118.05 C-1004.29,-1107.81 -1006.32,-1096.59 -1006.32,-1084.39 Z M-991.411,-1084.39 C-991.411,-1094.33 -989.829,-1103.6 -986.666,-1112.18 C-983.503,-1120.77 -978.985,-1128.22 -973.111,-1134.55 C-967.237,-1140.87 -960.12,-1145.84 -951.761,-1149.46 C-943.402,-1153.07 -934.026,-1154.88 -923.634,-1154.88 C-913.241,-1154.88 -903.865,-1153.07 -895.506,-1149.46 C-887.147,-1145.84 -880.03,-1140.87 -874.156,-1134.55 C-868.282,-1128.22 -863.764,-1120.77 -860.601,-1112.18 C-857.438,-1103.6 -855.856,-1094.33 -855.856,-1084.39 C-855.856,-1074.45 -857.438,-1065.19 -860.601,-1056.6 C-863.764,-1048.02 -868.282,-1040.56 -874.156,-1034.24 C-880.03,-1027.91 -887.147,-1022.94 -895.506,-1019.33 C-903.865,-1015.71 -913.241,-1013.9 -923.634,-1013.9 C-934.026,-1013.9 -943.402,-1015.71 -951.761,-1019.33 C-960.12,-1022.94 -967.237,-1027.91 -973.111,-1034.24 C-978.985,-1040.56 -983.503,-1048.02 -986.666,-1056.6 C-989.829,-1065.19 -991.411,-1074.45 -991.411,-1084.39 Z M-840.042,-1024.52 C-833.716,-1015.79 -826.11,-1009.57 -817.223,-1005.88 C-808.337,-1002.19 -798.622,-1000.35 -788.079,-1000.35 C-781.603,-1000.35 -775.352,-1001.33 -769.328,-1003.29 C-763.303,-1005.24 -757.994,-1008.14 -753.4,-1011.98 C-748.806,-1015.82 -745.154,-1020.53 -742.443,-1026.1 C-739.732,-1031.68 -738.376,-1038.08 -738.376,-1045.31 C-738.376,-1055.25 -740.409,-1063.04 -744.476,-1068.69 C-748.543,-1074.34 -753.626,-1078.74 -759.726,-1081.91 C-765.826,-1085.07 -772.453,-1087.59 -779.607,-1089.48 C-786.761,-1091.36 -793.389,-1093.54 -799.488,-1096.03 C-805.588,-1098.51 -810.672,-1101.9 -814.738,-1106.19 C-818.805,-1110.49 -820.838,-1116.62 -820.838,-1124.61 C-820.838,-1129.73 -819.859,-1134.17 -817.901,-1137.94 C-815.943,-1141.7 -813.345,-1144.83 -810.107,-1147.31 C-806.869,-1149.8 -803.066,-1151.68 -798.698,-1152.96 C-794.33,-1154.24 -789.736,-1154.88 -784.916,-1154.88 C-777.988,-1154.88 -772.001,-1153.56 -766.955,-1150.93 C-761.91,-1148.29 -757.504,-1144.34 -753.739,-1139.07 L-740.861,-1148.33 C-746.283,-1155.56 -752.722,-1160.72 -760.178,-1163.8 C-767.633,-1166.89 -775.729,-1168.44 -784.465,-1168.44 C-791.242,-1168.44 -797.719,-1167.49 -803.894,-1165.61 C-810.069,-1163.73 -815.529,-1160.94 -820.273,-1157.25 C-825.018,-1153.56 -828.783,-1148.97 -831.57,-1143.47 C-834.356,-1137.97 -835.749,-1131.69 -835.749,-1124.61 C-835.749,-1117.08 -834.582,-1110.75 -832.247,-1105.63 C-829.913,-1100.51 -826.788,-1096.25 -822.872,-1092.86 C-818.956,-1089.48 -814.55,-1086.73 -809.655,-1084.62 C-804.76,-1082.51 -799.714,-1080.63 -794.518,-1078.97 C-789.322,-1077.31 -784.276,-1075.66 -779.381,-1074 C-774.486,-1072.34 -770.081,-1070.35 -766.165,-1068.01 C-762.249,-1065.68 -759.123,-1062.7 -756.789,-1059.09 C-754.454,-1055.47 -753.287,-1050.88 -753.287,-1045.31 C-753.287,-1040.49 -754.228,-1036.16 -756.111,-1032.32 C-757.994,-1028.48 -760.554,-1025.2 -763.793,-1022.49 C-767.031,-1019.78 -770.834,-1017.67 -775.202,-1016.16 C-779.57,-1014.66 -784.239,-1013.9 -789.209,-1013.9 C-797.192,-1013.9 -804.308,-1015.56 -810.559,-1018.87 C-816.809,-1022.19 -821.893,-1027.23 -825.809,-1034.01 L-840.042,-1024.52 Z " fill="#0028ff" fill-opacity="1.00" />			<path d="M-803.298,-1.12767 C-803.298,14.123 -800.757,28.1969 -795.673,41.0941 C-790.59,53.9913 -783.529,65.0998 -774.492,74.4196 C-765.454,83.7395 -754.581,90.9882 -741.872,96.1659 C-729.163,101.344 -715.183,103.932 -699.933,103.932 C-684.682,103.932 -670.702,101.344 -657.993,96.1659 C-645.285,90.9882 -634.411,83.7395 -625.374,74.4196 C-616.337,65.0998 -609.276,53.9913 -604.192,41.0941 C-599.109,28.1969 -596.567,14.123 -596.567,-1.12767 C-596.567,-16.3783 -599.109,-30.4052 -604.192,-43.2082 C-609.276,-56.0112 -616.337,-67.0727 -625.374,-76.3925 C-634.411,-85.7124 -645.285,-93.0082 -657.993,-98.2801 C-670.702,-103.552 -684.682,-106.188 -699.933,-106.188 C-715.183,-106.188 -729.163,-103.552 -741.872,-98.2801 C-754.581,-93.0082 -765.454,-85.7124 -774.492,-76.3925 C-783.529,-67.0727 -790.59,-56.0112 -795.673,-43.2082 C-800.757,-30.4052 -803.298,-16.3783 -803.298,-1.12767 Z M-784.659,-1.12767 C-784.659,-13.5541 -782.682,-25.1333 -778.728,-35.8653 C-774.774,-46.5973 -769.126,-55.9171 -761.783,-63.8249 C-754.44,-71.7326 -745.544,-77.9458 -735.094,-82.4646 C-724.645,-86.9833 -712.924,-89.2426 -699.933,-89.2426 C-686.941,-89.2426 -675.221,-86.9833 -664.772,-82.4646 C-654.322,-77.9458 -645.426,-71.7326 -638.083,-63.8249 C-630.74,-55.9171 -625.092,-46.5973 -621.138,-35.8653 C-617.184,-25.1333 -615.207,-13.5541 -615.207,-1.12767 C-615.207,11.2988 -617.184,22.878 -621.138,33.61 C-625.092,44.3419 -630.74,53.6618 -638.083,61.5695 C-645.426,69.4773 -654.322,75.6905 -664.772,80.2092 C-675.221,84.7279 -686.941,86.9873 -699.933,86.9873 C-712.924,86.9873 -724.645,84.7279 -735.094,80.2092 C-745.544,75.6905 -754.44,69.4773 -761.783,61.5695 C-769.126,53.6618 -774.774,44.3419 -778.728,33.61 C-782.682,22.878 -784.659,11.2988 -784.659,-1.12767 Z M-595.437,73.7136 C-587.53,84.6338 -578.022,92.4003 -566.913,97.0132 C-555.805,101.626 -543.661,103.932 -530.481,103.932 C-522.385,103.932 -514.571,102.709 -507.04,100.261 C-499.509,97.8134 -492.872,94.189 -487.129,89.3879 C-481.387,84.5867 -476.821,78.703 -473.432,71.7366 C-470.043,64.7703 -468.349,56.7684 -468.349,47.731 C-468.349,35.3045 -470.89,25.561 -475.974,18.5005 C-481.057,11.44 -487.412,5.93282 -495.037,1.97895 C-502.663,-1.97493 -510.947,-5.12862 -519.89,-7.48211 C-528.833,-9.83561 -537.118,-12.5657 -544.743,-15.6723 C-552.368,-18.7789 -558.723,-23.0152 -563.806,-28.3812 C-568.89,-33.7472 -571.432,-41.4196 -571.432,-51.3984 C-571.432,-57.7999 -570.208,-63.3542 -567.76,-68.0612 C-565.313,-72.7682 -562.065,-76.675 -558.017,-79.7816 C-553.969,-82.8882 -549.215,-85.2417 -543.755,-86.8421 C-538.295,-88.4424 -532.552,-89.2426 -526.527,-89.2426 C-517.866,-89.2426 -510.382,-87.5952 -504.075,-84.3003 C-497.767,-81.0054 -492.26,-76.063 -487.553,-69.4733 L-471.455,-81.0525 C-478.233,-90.0899 -486.282,-96.5385 -495.602,-100.398 C-504.922,-104.258 -515.042,-106.188 -525.962,-106.188 C-534.435,-106.188 -542.531,-105.011 -550.25,-102.658 C-557.97,-100.304 -564.795,-96.8209 -570.726,-92.208 C-576.657,-87.5952 -581.364,-81.8527 -584.847,-74.9804 C-588.33,-68.1082 -590.071,-60.2475 -590.071,-51.3984 C-590.071,-41.9844 -588.612,-34.0766 -585.694,-27.6751 C-582.776,-21.2736 -578.869,-15.9547 -573.974,-11.7184 C-569.078,-7.48211 -563.571,-4.04601 -557.452,-1.41009 C-551.333,1.22583 -545.026,3.57933 -538.53,5.65041 C-532.034,7.72148 -525.727,9.79256 -519.608,11.8636 C-513.489,13.9347 -507.981,16.4294 -503.086,19.3478 C-498.191,22.2661 -494.284,25.9846 -491.366,30.5033 C-488.447,35.0221 -486.988,40.7646 -486.988,47.731 C-486.988,53.7559 -488.165,59.169 -490.519,63.9701 C-492.872,68.7712 -496.073,72.8663 -500.121,76.2553 C-504.169,79.6444 -508.923,82.2803 -514.383,84.1631 C-519.843,86.0459 -525.68,86.9873 -531.893,86.9873 C-541.872,86.9873 -550.768,84.9162 -558.582,80.7741 C-566.395,76.6319 -572.75,70.3245 -577.645,61.8519 L-595.437,73.7136 Z " fill="#000000" fill-opacity="1.00" />			<path d="M709.773,-268.103 L678.653,-236.984 L682.003,-233.634 L790.107,-341.738 L786.757,-345.088 L758.987,-317.318 L758.987,-318.588 L758.987,-403.142 L758.987,-479.654 L682.475,-403.142 L709.841,-403.142 L709.841,-367.734 L709.841,-348.671 L709.841,-313.994 L709.841,-313.994 L709.841,-313.968 L709.841,-313.968 L709.773,-313.968 L709.773,-268.103 L709.773,-268.103 Z " fill="#000000" fill-opacity="1.00" />			<path d="M639.706,-942.903 L590.45,-893.647 L573.743,-873.598 L766.857,-1059.45 L891.661,-1190.35 L717.601,-1020.8 L717.601,-1022.81 L717.601,-1156.64 L717.601,-1277.74 L596.498,-1156.64 L639.814,-1156.64 L639.814,-1100.6 L639.814,-1070.42 L639.814,-1015.54 L639.814,-1015.54 L639.814,-1015.5 L639.814,-1015.5 L639.706,-1015.5 L639.706,-942.903 L639.706,-942.903 Z " fill="#000000" fill-opacity="1.00" />			<g>				<path d="M-905.851,-106.188 L-905.851,-87.0596 L-829.338,-87.0596 L-829.338,-106.188 L-905.851,-106.188 Z " fill="#000000" fill-opacity="1.00" />				<path d="M-905.851,-68.2213 L-905.851,-49.0932 L-829.338,-49.0932 L-829.338,-68.2213 L-905.851,-68.2213 Z " fill="#000000" fill-opacity="1.00" />				<path d="M-905.851,-29.675 L-905.851,-10.5468 L-829.338,-10.5468 L-829.338,-29.675 L-905.851,-29.675 Z " fill="#000000" fill-opacity="1.00" />				<path d="M-905.851,8.29148 L-905.851,27.4197 L-829.338,27.4197 L-829.338,8.29148 L-905.851,8.29148 Z " fill="#000000" fill-opacity="1.00" />				<path d="M-905.851,46.5477 L-905.851,65.6759 L-829.338,65.6759 L-829.338,46.5477 L-905.851,46.5477 Z " fill="#000000" fill-opacity="1.00" />				<path d="M-905.851,84.8043 L-905.851,103.932 L-829.338,103.932 L-829.338,84.8043 L-905.851,84.8043 Z " fill="#000000" fill-opacity="1.00" />			</g>			<path d="M-62.1312,-1084.39 C-62.1312,-1076.07 -60.7439,-1068.39 -57.9694,-1061.35 C-55.1949,-1054.31 -51.3414,-1048.25 -46.4089,-1043.16 C-41.4765,-1038.07 -35.5421,-1034.12 -28.6058,-1031.29 C-21.6695,-1028.46 -14.0396,-1027.05 -5.71605,-1027.05 C2.6075,-1027.05 10.2374,-1028.46 17.1737,-1031.29 C24.11,-1034.12 30.0444,-1038.07 34.9768,-1043.16 C39.9093,-1048.25 43.7628,-1054.31 46.5373,-1061.35 C49.3118,-1068.39 50.6991,-1076.07 50.6991,-1084.39 C50.6991,-1092.72 49.3118,-1100.37 46.5373,-1107.36 C43.7628,-1114.35 39.9093,-1120.38 34.9768,-1125.47 C30.0444,-1130.56 24.11,-1134.54 17.1737,-1137.42 C10.2374,-1140.29 2.6075,-1141.73 -5.71605,-1141.73 C-14.0396,-1141.73 -21.6695,-1140.29 -28.6058,-1137.42 C-35.5421,-1134.54 -41.4765,-1130.56 -46.4089,-1125.47 C-51.3414,-1120.38 -55.1949,-1114.35 -57.9694,-1107.36 C-60.7439,-1100.37 -62.1312,-1092.72 -62.1312,-1084.39 Z M-51.958,-1084.39 C-51.958,-1091.17 -50.879,-1097.49 -48.721,-1103.35 C-46.5631,-1109.21 -43.4803,-1114.3 -39.4727,-1118.61 C-35.465,-1122.93 -30.6096,-1126.32 -24.9064,-1128.78 C-19.2033,-1131.25 -12.8065,-1132.48 -5.71605,-1132.48 C1.37438,-1132.48 7.77118,-1131.25 13.4744,-1128.78 C19.1775,-1126.32 24.0329,-1122.93 28.0406,-1118.61 C32.0482,-1114.3 35.131,-1109.21 37.2889,-1103.35 C39.4469,-1097.49 40.5259,-1091.17 40.5259,-1084.39 C40.5259,-1077.61 39.4469,-1071.29 37.2889,-1065.43 C35.131,-1059.58 32.0482,-1054.49 28.0406,-1050.17 C24.0329,-1045.86 19.1775,-1042.47 13.4744,-1040 C7.77118,-1037.53 1.37438,-1036.3 -5.71605,-1036.3 C-12.8065,-1036.3 -19.2033,-1037.53 -24.9064,-1040 C-30.6096,-1042.47 -35.465,-1045.86 -39.4727,-1050.17 C-43.4803,-1054.49 -46.5631,-1059.58 -48.721,-1065.43 C-50.879,-1071.29 -51.958,-1077.61 -51.958,-1084.39 Z M51.3157,-1043.54 C55.6316,-1037.58 60.8209,-1033.35 66.8838,-1030.83 C72.9466,-1028.31 79.5746,-1027.05 86.7678,-1027.05 C91.1865,-1027.05 95.451,-1027.72 99.5614,-1029.06 C103.672,-1030.39 107.294,-1032.37 110.428,-1034.99 C113.562,-1037.61 116.054,-1040.82 117.904,-1044.62 C119.754,-1048.43 120.679,-1052.79 120.679,-1057.73 C120.679,-1064.51 119.291,-1069.83 116.517,-1073.68 C113.742,-1077.53 110.274,-1080.54 106.112,-1082.7 C101.951,-1084.85 97.4291,-1086.58 92.548,-1087.86 C87.6669,-1089.14 83.1455,-1090.63 78.9837,-1092.33 C74.822,-1094.03 71.3538,-1096.34 68.5793,-1099.27 C65.8048,-1102.2 64.4175,-1106.38 64.4175,-1111.83 C64.4175,-1115.32 65.0855,-1118.35 66.4214,-1120.92 C67.7572,-1123.49 69.5298,-1125.62 71.7392,-1127.32 C73.9485,-1129.02 76.5432,-1130.3 79.5232,-1131.17 C82.5033,-1132.05 85.6374,-1132.48 88.9258,-1132.48 C93.6527,-1132.48 97.7374,-1131.58 101.18,-1129.79 C104.622,-1127.99 107.628,-1125.29 110.197,-1121.69 L118.983,-1128.01 C115.284,-1132.95 110.891,-1136.47 105.804,-1138.57 C100.717,-1140.68 95.1941,-1141.73 89.234,-1141.73 C84.6098,-1141.73 80.1912,-1141.09 75.978,-1139.81 C71.7649,-1138.52 68.0398,-1136.62 64.8029,-1134.1 C61.566,-1131.58 58.997,-1128.45 57.0959,-1124.7 C55.1948,-1120.95 54.2443,-1116.66 54.2443,-1111.83 C54.2443,-1106.69 55.0407,-1102.37 56.6335,-1098.88 C58.2263,-1095.39 60.3585,-1092.48 63.0303,-1090.17 C65.702,-1087.86 68.7078,-1085.98 72.0475,-1084.55 C75.3871,-1083.11 78.8296,-1081.82 82.3748,-1080.69 C85.92,-1079.56 89.3625,-1078.43 92.7022,-1077.3 C96.0419,-1076.17 99.0476,-1074.81 101.719,-1073.22 C104.391,-1071.62 106.523,-1069.59 108.116,-1067.13 C109.709,-1064.66 110.505,-1061.53 110.505,-1057.73 C110.505,-1054.44 109.863,-1051.48 108.579,-1048.86 C107.294,-1046.24 105.547,-1044.01 103.338,-1042.16 C101.128,-1040.31 98.5338,-1038.87 95.5538,-1037.84 C92.5737,-1036.81 89.3882,-1036.3 85.9971,-1036.3 C80.5508,-1036.3 75.6954,-1037.43 71.4309,-1039.69 C67.1664,-1041.95 63.6982,-1045.39 61.0265,-1050.02 L51.3157,-1043.54 Z " fill="#000000" fill-opacity="1.00" />			<path d="M-147.062,-1230.41 L-147.062,-1203.82 L-74.8501,-1203.82 L-74.8501,-1230.41 L-147.062,-1230.41 Z M-147.062,-1177.64 L-147.062,-1151.06 L-74.8501,-1151.06 L-74.8501,-1177.64 L-147.062,-1177.64 Z M-147.062,-1124.07 L-147.062,-1097.48 L-74.8501,-1097.48 L-74.8501,-1124.07 L-147.062,-1124.07 Z M-147.062,-1071.3 L-147.062,-1044.72 L-74.8501,-1044.72 L-74.8501,-1071.3 L-147.062,-1071.3 Z M-147.062,-1018.13 L-147.062,-991.546 L-74.8501,-991.546 L-74.8501,-1018.13 L-147.062,-1018.13 Z M-147.062,-964.96 L-147.062,-938.375 L-74.8501,-938.375 L-74.8501,-964.96 L-147.062,-964.96 Z " fill="#000000" fill-opacity="1.00" />			<path d="M-2252.18,-915.569 C-2233.76,-915.569 -2218.69,-930.642 -2218.69,-949.064 L-2218.69,-1217.02 C-2218.69,-1235.45 -2233.76,-1250.52 -2252.18,-1250.52 C-2270.6,-1250.52 -2285.68,-1235.45 -2285.68,-1217.02 L-2285.68,-949.064 C-2285.68,-930.642 -2270.6,-915.569 -2252.18,-915.569 Z " fill="#ffffff" fill-opacity="1.00" />			<path d="M-1846.67,-1083.04 C-1846.67,-1175.49 -1921.7,-1250.52 -2014.15,-1250.52 C-2106.59,-1250.52 -2181.62,-1175.49 -2181.62,-1083.04 C-2181.62,-990.598 -2106.59,-915.569 -2014.15,-915.569 C-1921.7,-915.569 -1846.67,-990.598 -1846.67,-1083.04 Z M-2014.15,-1183.53 C-1958.54,-1183.53 -1913.66,-1138.65 -1913.66,-1083.04 C-1913.66,-1027.44 -1958.54,-982.559 -2014.15,-982.559 C-2069.75,-982.559 -2114.63,-1027.44 -2114.63,-1083.04 C-2114.63,-1138.65 -2069.75,-1183.53 -2014.15,-1183.53 Z " fill="#ffffff" fill-opacity="1.00" />			<path d="M-1619.06,-1217.2 C-1632.56,-1229.21 -1647.72,-1237.76 -1664.53,-1242.87 C-1681.33,-1247.97 -1698.74,-1250.52 -1716.75,-1250.52 C-1732.36,-1250.52 -1747.51,-1248.34 -1762.22,-1243.99 C-1776.93,-1239.64 -1789.91,-1233.11 -1801.16,-1224.41 C-1812.42,-1215.7 -1821.42,-1204.9 -1828.17,-1191.99 C-1834.93,-1179.09 -1838.3,-1164.08 -1838.3,-1146.97 C-1838.3,-1129.26 -1834.63,-1115.01 -1827.27,-1104.2 C-1819.92,-1093.4 -1810.69,-1084.69 -1799.59,-1078.09 C-1788.48,-1071.49 -1776.48,-1066.24 -1763.57,-1062.33 C-1750.67,-1058.43 -1738.66,-1054.53 -1727.55,-1050.63 C-1716.45,-1046.73 -1707.22,-1042 -1699.87,-1036.45 C-1692.51,-1030.9 -1688.84,-1023.32 -1688.84,-1013.71 C-1688.84,-1008.01 -1690.26,-1003.06 -1693.11,-998.856 C-1695.97,-994.654 -1699.72,-991.203 -1704.37,-988.501 C-1709.02,-985.8 -1714.27,-983.774 -1720.13,-982.424 C-1725.98,-981.073 -1731.76,-980.398 -1737.46,-980.398 C-1749.16,-980.398 -1760.49,-983.024 -1771.45,-988.276 C-1782.4,-993.529 -1791.48,-1000.96 -1798.69,-1010.56 L-1848.66,-955.637 C-1833.35,-941.53 -1816.84,-931.326 -1799.14,-925.023 C-1781.43,-918.72 -1762.22,-915.569 -1741.51,-915.569 C-1725,-915.569 -1709.32,-917.67 -1694.46,-921.872 C-1679.61,-926.073 -1666.55,-932.526 -1655.3,-941.23 C-1644.04,-949.934 -1635.11,-960.889 -1628.51,-974.095 C-1621.91,-987.301 -1618.61,-1002.76 -1618.61,-1020.47 C-1618.61,-1039.07 -1622.21,-1053.93 -1629.41,-1065.04 C-1636.61,-1076.14 -1645.69,-1084.99 -1656.65,-1091.6 C-1667.6,-1098.2 -1679.38,-1103.3 -1691.99,-1106.9 C-1704.59,-1110.51 -1716.37,-1114.11 -1727.33,-1117.71 C-1738.28,-1121.31 -1747.36,-1125.66 -1754.57,-1130.77 C-1761.77,-1135.87 -1765.37,-1143.22 -1765.37,-1152.82 C-1765.37,-1158.83 -1763.87,-1163.93 -1760.87,-1168.13 C-1757.87,-1172.33 -1753.97,-1175.71 -1749.16,-1178.26 C-1744.36,-1180.81 -1739.26,-1182.69 -1733.86,-1183.89 C-1728.46,-1185.09 -1723.2,-1185.69 -1718.1,-1185.69 C-1709.4,-1185.69 -1700.17,-1183.96 -1690.41,-1180.51 C-1680.66,-1177.06 -1672.93,-1171.73 -1667.23,-1164.53 L-1619.06,-1217.2 Z " fill="#ffffff" fill-opacity="1.00" stroke-width="2.08" stroke="#ffffff" stroke-linecap="round" stroke-linejoin="round" />			<path d="M-21.517,-593.246 C21.2644,-593.246 55.8971,-627.879 55.8971,-670.66 C55.8971,-713.442 21.2644,-748.075 -21.517,-748.075 C-64.2985,-748.075 -98.9311,-713.442 -98.9311,-670.66 C-98.9311,-627.879 -64.2985,-593.246 -21.517,-593.246 Z " fill="#0028ff" fill-opacity="1.00" />			<g>				<path d="M-172.98,-719.882 L-172.98,-707.804 L-124.668,-707.804 L-124.668,-719.882 L-172.98,-719.882 Z " fill="#000000" fill-opacity="1.00" />				<path d="M-172.98,-695.909 L-172.98,-683.831 L-124.668,-683.831 L-124.668,-695.909 L-172.98,-695.909 Z " fill="#000000" fill-opacity="1.00" />				<path d="M-172.98,-671.57 L-172.98,-659.492 L-124.668,-659.492 L-124.668,-671.57 L-172.98,-671.57 Z " fill="#000000" fill-opacity="1.00" />				<path d="M-172.98,-647.597 L-172.98,-635.519 L-124.668,-635.519 L-124.668,-647.597 L-172.98,-647.597 Z " fill="#000000" fill-opacity="1.00" />				<path d="M-172.98,-623.441 L-172.98,-611.363 L-124.668,-611.363 L-124.668,-623.441 L-172.98,-623.441 Z " fill="#000000" fill-opacity="1.00" />				<path d="M-172.98,-599.285 L-172.98,-587.207 L-124.668,-587.207 L-124.668,-599.285 L-172.98,-599.285 Z " fill="#000000" fill-opacity="1.00" />			</g>			<path d="M-198.837,-719.882 L-198.837,-707.804 L-150.525,-707.804 L-150.525,-719.882 L-198.837,-719.882 Z " fill="#000000" fill-opacity="1.00" />			<path d="M-172.98,-744.419 L-172.98,-732.341 L-124.668,-732.341 L-124.668,-744.419 L-172.98,-744.419 Z " fill="#000000" fill-opacity="1.00" />			<path d="M-147.062,-599.285 L-147.062,-587.207 L-98.7503,-587.207 L-98.7503,-599.285 L-147.062,-599.285 Z " fill="#000000" fill-opacity="1.00" />			<path d="M-198.837,-599.285 L-198.837,-587.207 L-150.525,-587.207 L-150.525,-599.285 L-198.837,-599.285 Z " fill="#000000" fill-opacity="1.00" />			<g>				<path d="M-121.213,-471.697 L-121.213,-463.336 L-87.7696,-463.336 L-87.7696,-471.697 L-121.213,-471.697 Z " fill="#000000" fill-opacity="1.00" />				<path d="M-121.213,-455.102 L-121.213,-446.742 L-87.7696,-446.742 L-87.7696,-455.102 L-121.213,-455.102 Z " fill="#000000" fill-opacity="1.00" />				<path d="M-121.213,-438.254 L-121.213,-429.893 L-87.7696,-429.893 L-87.7696,-438.254 L-121.213,-438.254 Z " fill="#000000" fill-opacity="1.00" />				<path d="M-121.213,-421.659 L-121.213,-413.299 L-87.7696,-413.299 L-87.7696,-421.659 L-121.213,-421.659 Z " fill="#000000" fill-opacity="1.00" />				<path d="M-121.213,-404.938 L-121.213,-396.577 L-87.7696,-396.577 L-87.7696,-404.938 L-121.213,-404.938 Z " fill="#000000" fill-opacity="1.00" />				<path d="M-121.213,-388.216 L-121.213,-379.856 L-87.7696,-379.856 L-87.7696,-388.216 L-121.213,-388.216 Z " fill="#000000" fill-opacity="1.00" />			</g>			<path d="M-139.112,-471.697 L-139.112,-463.336 L-105.669,-463.336 L-105.669,-471.697 L-139.112,-471.697 Z " fill="#000000" fill-opacity="1.00" />			<path d="M-121.213,-488.682 L-121.213,-480.322 L-87.7696,-480.322 L-87.7696,-488.682 L-121.213,-488.682 Z " fill="#000000" fill-opacity="1.00" />			<path d="M-139.112,-388.216 L-139.112,-379.856 L-105.669,-379.856 L-105.669,-388.216 L-139.112,-388.216 Z " fill="#000000" fill-opacity="1.00" />			<path d="M165.145,-732.675 C158.902,-738.224 151.896,-742.178 144.127,-744.537 C136.358,-746.895 128.311,-748.075 119.987,-748.075 C112.773,-748.075 105.767,-747.069 98.9689,-745.057 C92.1709,-743.045 86.1706,-740.028 80.968,-736.005 C75.7655,-731.981 71.6034,-726.987 68.4819,-721.021 C65.3604,-715.056 63.7996,-708.119 63.7996,-700.211 C63.7996,-692.026 65.4991,-685.436 68.8981,-680.441 C72.2971,-675.447 76.5632,-671.423 81.6964,-668.371 C86.8296,-665.319 92.379,-662.891 98.3446,-661.088 C104.31,-659.284 109.86,-657.481 114.993,-655.677 C120.126,-653.874 124.392,-651.688 127.791,-649.122 C131.19,-646.555 132.89,-643.052 132.89,-638.613 C132.89,-635.977 132.231,-633.688 130.913,-631.745 C129.595,-629.803 127.86,-628.208 125.71,-626.959 C123.56,-625.71 121.132,-624.774 118.426,-624.15 C115.721,-623.525 113.05,-623.213 110.415,-623.213 C105.004,-623.213 99.7666,-624.427 94.7028,-626.855 C89.639,-629.283 85.4422,-632.716 82.1126,-637.156 L59.0132,-611.767 C66.0887,-605.247 73.7191,-600.53 81.9045,-597.616 C90.0899,-594.703 98.9689,-593.246 108.542,-593.246 C116.172,-593.246 123.421,-594.217 130.288,-596.16 C137.156,-598.102 143.191,-601.085 148.393,-605.108 C153.596,-609.131 157.723,-614.195 160.775,-620.3 C163.827,-626.404 165.354,-633.549 165.354,-641.734 C165.354,-650.336 163.689,-657.203 160.359,-662.336 C157.029,-667.47 152.833,-671.562 147.769,-674.614 C142.705,-677.667 137.26,-680.025 131.433,-681.69 C125.606,-683.355 120.161,-685.019 115.097,-686.684 C110.033,-688.349 105.836,-690.361 102.507,-692.719 C99.177,-695.078 97.5122,-698.477 97.5122,-702.916 C97.5122,-705.691 98.2059,-708.049 99.5932,-709.992 C100.981,-711.934 102.784,-713.495 105.004,-714.674 C107.224,-715.853 109.582,-716.72 112.079,-717.275 C114.577,-717.83 117.004,-718.108 119.363,-718.108 C123.386,-718.108 127.652,-717.31 132.161,-715.715 C136.67,-714.119 140.243,-711.657 142.879,-708.327 L165.145,-732.675 Z " fill="#ff8888" fill-opacity="1.00" />			<path d="M41.7584,-230.478 C44.9531,-226.066 48.7942,-222.929 53.2819,-221.065 C57.7696,-219.202 62.6757,-218.27 68.0001,-218.27 C71.2708,-218.27 74.4274,-218.764 77.4699,-219.753 C80.5124,-220.742 83.1936,-222.206 85.5135,-224.146 C87.8334,-226.085 89.678,-228.462 91.0471,-231.277 C92.4162,-234.091 93.1008,-237.324 93.1008,-240.975 C93.1008,-245.995 92.0739,-249.931 90.0202,-252.783 C87.9666,-255.636 85.3994,-257.86 82.3189,-259.458 C79.2384,-261.055 75.8916,-262.329 72.2786,-263.28 C68.6656,-264.231 65.3189,-265.334 62.2383,-266.589 C59.1578,-267.844 56.5907,-269.555 54.537,-271.723 C52.4833,-273.891 51.4564,-276.99 51.4564,-281.022 C51.4564,-283.608 51.9509,-285.852 52.9397,-287.753 C53.9285,-289.655 55.2406,-291.233 56.8759,-292.488 C58.5113,-293.743 60.4318,-294.694 62.6377,-295.34 C64.8435,-295.987 67.1634,-296.31 69.5974,-296.31 C73.0963,-296.31 76.1198,-295.645 78.6679,-294.314 C81.216,-292.982 83.4408,-290.986 85.3424,-288.324 L91.8458,-293.001 C89.1075,-296.652 85.8558,-299.258 82.0907,-300.817 C78.3256,-302.376 74.2372,-303.156 69.8256,-303.156 C66.4028,-303.156 63.1321,-302.68 60.0135,-301.73 C56.8949,-300.779 54.1377,-299.372 51.7417,-297.508 C49.3457,-295.645 47.4441,-293.325 46.037,-290.548 C44.6298,-287.772 43.9262,-284.597 43.9262,-281.022 C43.9262,-277.218 44.5157,-274.024 45.6947,-271.438 C46.8737,-268.852 48.452,-266.703 50.4296,-264.991 C52.4072,-263.28 54.6321,-261.892 57.1041,-260.827 C59.5761,-259.762 62.1242,-258.811 64.7484,-257.975 C67.3726,-257.138 69.9207,-256.301 72.3927,-255.465 C74.8647,-254.628 77.0896,-253.62 79.0672,-252.441 C81.0448,-251.262 82.6231,-249.76 83.8021,-247.934 C84.9811,-246.109 85.5706,-243.789 85.5706,-240.975 C85.5706,-238.541 85.0952,-236.354 84.1444,-234.414 C83.1936,-232.475 81.9006,-230.82 80.2652,-229.451 C78.6299,-228.082 76.7093,-227.017 74.5034,-226.256 C72.2976,-225.496 69.9397,-225.115 67.4296,-225.115 C63.3983,-225.115 59.8043,-225.952 56.6477,-227.626 C53.4911,-229.299 50.924,-231.847 48.9464,-235.27 L41.7584,-230.478 Z " fill="#000000" fill-opacity="1.00" />			<path d="M-44.4864,-260.713 C-44.4864,-254.552 -43.4596,-248.866 -41.4059,-243.656 C-39.3522,-238.445 -36.4998,-233.958 -32.8488,-230.193 C-29.1978,-226.428 -24.8052,-223.499 -19.6709,-221.407 C-14.5367,-219.316 -8.88905,-218.27 -2.72797,-218.27 C3.43311,-218.27 9.08077,-219.316 14.215,-221.407 C19.3492,-223.499 23.7419,-226.428 27.3929,-230.193 C31.0439,-233.958 33.8962,-238.445 35.9499,-243.656 C38.0036,-248.866 39.0305,-254.552 39.0305,-260.713 C39.0305,-266.874 38.0036,-272.541 35.9499,-277.713 C33.8962,-282.885 31.0439,-287.354 27.3929,-291.119 C23.7419,-294.884 19.3492,-297.831 14.215,-299.961 C9.08077,-302.091 3.43311,-303.156 -2.72797,-303.156 C-8.88905,-303.156 -14.5367,-302.091 -19.6709,-299.961 C-24.8052,-297.831 -29.1978,-294.884 -32.8488,-291.119 C-36.4998,-287.354 -39.3522,-282.885 -41.4059,-277.713 C-43.4596,-272.541 -44.4864,-266.874 -44.4864,-260.713 Z M-36.9562,-260.713 C-36.9562,-265.733 -36.1575,-270.411 -34.5602,-274.746 C-32.9629,-279.082 -30.681,-282.847 -27.7146,-286.042 C-24.7481,-289.236 -21.1542,-291.746 -16.9327,-293.572 C-12.7112,-295.397 -7.9763,-296.31 -2.72797,-296.31 C2.52036,-296.31 7.25527,-295.397 11.4767,-293.572 C15.6982,-291.746 19.2922,-289.236 22.2586,-286.042 C25.2251,-282.847 27.507,-279.082 29.1043,-274.746 C30.7016,-270.411 31.5003,-265.733 31.5003,-260.713 C31.5003,-255.693 30.7016,-251.015 29.1043,-246.679 C27.507,-242.344 25.2251,-238.579 22.2586,-235.384 C19.2922,-232.189 15.6982,-229.679 11.4767,-227.854 C7.25526,-226.028 2.52036,-225.115 -2.72797,-225.115 C-7.9763,-225.115 -12.7112,-226.028 -16.9327,-227.854 C-21.1542,-229.679 -24.7481,-232.189 -27.7146,-235.384 C-30.681,-238.579 -32.9629,-242.344 -34.5602,-246.679 C-36.1575,-251.015 -36.9562,-255.693 -36.9562,-260.713 Z " fill="#000000" fill-opacity="1.00" />			<path d="M-74.3404,-271.8 L-74.3404,-270.524 L-74.2882,-270.524 L-74.2882,-255.424 L-74.2882,-247.293 L-74.2882,-232.504 L-74.2882,-232.504 L-74.2882,-211.504 L-53.3281,-232.464 L-53.3281,-234.463 L-53.3281,-270.524 L-53.3281,-303.156 L-74.3173,-282.167 L-74.3173,-271.8 L-74.3404,-271.8 Z " fill="#001798" fill-opacity="1.00" />			<path d="M-74.3164,-282.084 L-74.3164,-303.074 L-53.3271,-303.074 L-74.3164,-282.084 Z " fill="#0028ff" fill-opacity="1.00" />			<path d="M-74.2934,-303.074 L-74.2934,-282.084 L-95.2827,-282.084 L-74.2934,-303.074 Z " fill="#0028ff" fill-opacity="1.00" />			<path d="M321.909,-454.581 L321.909,-452.041 L322.012,-452.041 L322.012,-421.982 L322.012,-405.797 L322.012,-376.358 L322.012,-376.358 L322.012,-334.555 L363.736,-376.278 L363.736,-380.258 L363.736,-452.041 L363.736,-516.998 L321.954,-475.217 L321.954,-454.581 L321.909,-454.581 Z " fill="#a9bbff" fill-opacity="1.00" />			<path d="M321.956,-475.053 L321.956,-516.834 L363.738,-516.834 L321.956,-475.053 Z " fill="#ced6ff" fill-opacity="1.00" />			<path d="M322.002,-516.834 L322.002,-475.053 L280.221,-475.053 L322.002,-516.834 Z " fill="#ced6ff" fill-opacity="1.00" />			<path d="M390.473,120.083 C458.048,120.083 512.751,65.3792 512.751,-2.19569 C512.751,-69.7705 458.048,-124.474 390.473,-124.474 C322.898,-124.474 268.195,-69.7705 268.195,-2.19569 C268.195,65.3792 322.898,120.083 390.473,120.083 Z " fill="#000f4e" fill-opacity="1.00" />			<path d="M389.407,-84.788 C375.275,-84.788 363.736,-73.2489 363.736,-59.1168 L363.736,17.767 C363.736,31.8991 375.275,43.4382 389.407,43.4382 C403.539,43.4382 415.078,31.8991 415.078,17.767 L415.078,-59.1168 C415.078,-73.2489 403.539,-84.788 389.407,-84.788 Z " fill="#ffffff" fill-opacity="1.00" />			<path d="M389.407,-49.0218 C375.275,-49.0218 363.736,-37.4828 363.736,-23.3507 L363.736,53.5332 C363.736,67.6653 375.275,79.2044 389.407,79.2044 C403.539,79.2044 415.078,67.6653 415.078,53.5332 L415.078,-23.3507 C415.078,-37.4828 403.539,-49.0218 389.407,-49.0218 Z " fill="#ffffff" fill-opacity="1.00" />			<path d="M295.623,-425.003 C295.623,-421.531 296.208,-418.374 297.379,-415.53 C298.55,-412.686 300.171,-410.249 302.241,-408.221 C304.311,-406.192 306.779,-404.624 309.644,-403.516 C312.509,-402.407 315.656,-401.853 319.086,-401.853 C322.557,-401.895 325.736,-402.491 328.622,-403.641 C331.507,-404.791 333.996,-406.391 336.087,-408.44 C338.178,-410.49 339.809,-412.937 340.98,-415.781 C342.151,-418.625 342.737,-421.782 342.737,-425.254 C342.737,-428.809 342.151,-432.029 340.98,-434.915 C339.809,-437.801 338.178,-440.268 336.087,-442.318 C333.996,-444.367 331.507,-445.925 328.622,-446.991 C325.736,-448.058 322.557,-448.57 319.086,-448.529 C315.656,-448.529 312.509,-447.974 309.644,-446.866 C306.779,-445.758 304.311,-444.179 302.241,-442.129 C300.171,-440.08 298.55,-437.602 297.379,-434.695 C296.208,-431.789 295.623,-428.558 295.623,-425.003 Z M303.904,-425.505 C303.904,-427.721 304.27,-429.791 305.002,-431.715 C305.733,-433.639 306.769,-435.323 308.107,-436.766 C309.445,-438.209 311.045,-439.338 312.906,-440.153 C314.767,-440.969 316.848,-441.377 319.148,-441.377 C321.449,-441.377 323.54,-440.969 325.422,-440.153 C327.304,-439.338 328.914,-438.209 330.253,-436.766 C331.591,-435.323 332.626,-433.639 333.358,-431.715 C334.09,-429.791 334.456,-427.721 334.456,-425.505 C334.456,-423.121 334.09,-420.925 333.358,-418.917 C332.626,-416.91 331.591,-415.174 330.253,-413.71 C328.914,-412.246 327.304,-411.096 325.422,-410.26 C323.54,-409.423 321.449,-409.005 319.148,-409.005 C316.848,-409.005 314.767,-409.423 312.906,-410.26 C311.045,-411.096 309.445,-412.246 308.107,-413.71 C306.769,-415.174 305.733,-416.91 305.002,-418.917 C304.27,-420.925 303.904,-423.121 303.904,-425.505 Z M377.806,-443.949 C376.05,-445.58 374.073,-446.751 371.878,-447.462 C369.682,-448.173 367.413,-448.529 365.071,-448.529 C363.022,-448.529 361.014,-448.257 359.048,-447.713 C357.083,-447.169 355.336,-446.343 353.81,-445.235 C352.283,-444.127 351.049,-442.736 350.108,-441.063 C349.167,-439.39 348.697,-437.403 348.697,-435.103 C348.697,-432.468 349.22,-430.367 350.265,-428.798 C351.311,-427.23 352.607,-425.975 354.155,-425.034 C355.702,-424.093 357.396,-423.351 359.236,-422.807 C361.077,-422.263 362.771,-421.688 364.318,-421.082 C365.866,-420.475 367.162,-419.733 368.208,-418.855 C369.253,-417.976 369.776,-416.722 369.776,-415.09 C369.776,-414.087 369.546,-413.198 369.086,-412.424 C368.626,-411.65 368.019,-411.013 367.267,-410.511 C366.514,-410.009 365.677,-409.632 364.757,-409.382 C363.837,-409.131 362.917,-409.005 361.997,-409.005 C360.24,-409.005 358.578,-409.413 357.009,-410.228 C355.441,-411.044 354.176,-412.184 353.214,-413.648 L347.254,-407.876 C349.094,-405.701 351.29,-404.154 353.841,-403.233 C356.392,-402.313 359.048,-401.853 361.809,-401.853 C363.983,-401.853 366.054,-402.146 368.019,-402.732 C369.985,-403.317 371.71,-404.195 373.195,-405.366 C374.68,-406.537 375.861,-408.012 376.74,-409.789 C377.618,-411.567 378.057,-413.648 378.057,-416.031 C378.057,-418.666 377.534,-420.778 376.489,-422.368 C375.443,-423.957 374.147,-425.233 372.599,-426.195 C371.052,-427.157 369.358,-427.909 367.518,-428.453 C365.677,-428.997 363.983,-429.561 362.436,-430.147 C360.889,-430.733 359.592,-431.423 358.546,-432.217 C357.501,-433.012 356.978,-434.162 356.978,-435.668 C356.978,-436.671 357.187,-437.539 357.605,-438.271 C358.024,-439.003 358.578,-439.599 359.268,-440.059 C359.958,-440.519 360.732,-440.854 361.589,-441.063 C362.446,-441.272 363.335,-441.377 364.255,-441.377 C365.803,-441.377 367.277,-441.094 368.678,-440.53 C370.079,-439.965 371.198,-439.076 372.035,-437.863 L377.806,-443.949 Z " fill="#ffffff" fill-opacity="1.00" />			<path d="M4.93633,454.802 C70.2598,454.802 123.141,401.921 123.141,336.598 C123.141,271.274 70.2598,218.394 4.93633,218.394 C-60.3872,218.394 -113.268,271.274 -113.268,336.598 C-113.268,401.921 -60.3872,454.802 4.93633,454.802 Z " fill="#2a2a2a" fill-opacity="1.00" />			<path d="M-52.2884,317.731 L-52.2884,319.744 L-52.2061,319.744 L-52.2061,343.56 L-52.2061,356.383 L-52.2061,379.708 L-52.2061,379.708 L-52.2061,412.829 L-19.1482,379.772 L-19.1482,376.618 L-19.1482,319.744 L-19.1482,268.278 L-52.252,301.382 L-52.252,317.731 L-52.2884,317.731 Z " fill="#e2e2e2" fill-opacity="1.00" />			<path d="M-52.2505,301.511 L-52.2505,268.407 L-19.1467,268.407 L-52.2505,301.511 Z " fill="#ffffff" fill-opacity="1.00" />			<path d="M-52.2141,268.407 L-52.2141,301.511 L-85.318,301.511 L-52.2141,268.407 Z " fill="#ffffff" fill-opacity="1.00" />			<path d="M-10.7861,337.417 C-10.7861,341.878 -10.0337,345.936 -8.52876,349.591 C-7.02384,353.245 -4.94114,356.376 -2.28067,358.983 C0.379809,361.59 3.55088,363.605 7.23255,365.029 C10.9142,366.454 14.9587,367.166 19.3659,367.166 C23.8269,367.112 27.9117,366.346 31.6203,364.868 C35.3288,363.39 38.5267,361.334 41.2141,358.701 C43.9014,356.067 45.9976,352.923 47.5025,349.268 C49.0074,345.613 49.7599,341.555 49.7599,337.094 C49.7599,332.526 49.0074,328.387 47.5025,324.679 C45.9976,320.97 43.9014,317.799 41.2141,315.166 C38.5267,312.532 35.3288,310.53 31.6203,309.159 C27.9117,307.789 23.8269,307.13 19.3659,307.184 C14.9587,307.184 10.9142,307.896 7.23255,309.321 C3.55088,310.745 0.379809,312.774 -2.28067,315.407 C-4.94114,318.041 -7.02384,321.226 -8.52876,324.961 C-10.0337,328.696 -10.7861,332.848 -10.7861,337.417 Z M-0.144224,336.772 C-0.144224,333.923 0.326062,331.263 1.26663,328.79 C2.20721,326.318 3.53745,324.155 5.25735,322.301 C6.97725,320.446 9.03308,318.995 11.4248,317.947 C13.8166,316.899 16.4905,316.375 19.4466,316.375 C22.4026,316.375 25.09,316.899 27.5086,317.947 C29.9272,318.995 31.9965,320.446 33.7164,322.301 C35.4363,324.155 36.7665,326.318 37.7071,328.79 C38.6477,331.263 39.118,333.923 39.118,336.772 C39.118,339.835 38.6477,342.657 37.7071,345.237 C36.7665,347.817 35.4363,350.047 33.7164,351.929 C31.9965,353.81 29.9272,355.288 27.5086,356.363 C25.09,357.438 22.4026,357.975 19.4466,357.975 C16.4905,357.975 13.8166,357.438 11.4248,356.363 C9.03308,355.288 6.97725,353.81 5.25735,351.929 C3.53745,350.047 2.20721,347.817 1.26663,345.237 C0.326062,342.657 -0.144224,339.835 -0.144224,336.772 Z M92.1394,313.069 C89.882,310.973 87.3425,309.468 84.5207,308.555 C81.699,307.641 78.7832,307.184 75.7734,307.184 C73.1398,307.184 70.56,307.534 68.0338,308.232 C65.5077,308.931 63.2638,309.992 61.302,311.417 C59.3403,312.841 57.7547,314.628 56.5454,316.778 C55.3361,318.928 54.7315,321.481 54.7315,324.437 C54.7315,327.823 55.4033,330.524 56.747,332.539 C58.0907,334.555 59.7568,336.167 61.7454,337.377 C63.7341,338.586 65.9108,339.54 68.2757,340.239 C70.6406,340.937 72.8173,341.676 74.806,342.456 C76.7946,343.235 78.4608,344.189 79.8044,345.318 C81.1481,346.446 81.82,348.059 81.82,350.155 C81.82,351.445 81.5243,352.587 80.9331,353.581 C80.3419,354.576 79.5626,355.395 78.5951,356.04 C77.6277,356.685 76.5527,357.169 75.3703,357.491 C74.1879,357.814 73.0054,357.975 71.823,357.975 C69.5656,357.975 67.4292,357.451 65.4137,356.403 C63.3982,355.355 61.7723,353.89 60.5361,352.009 L52.8772,359.426 C55.2421,362.221 58.0638,364.21 61.3423,365.392 C64.6209,366.575 68.0338,367.166 71.5812,367.166 C74.376,367.166 77.0365,366.79 79.5626,366.037 C82.0887,365.285 84.3058,364.156 86.2138,362.651 C88.1218,361.146 89.6401,359.252 90.7688,356.967 C91.8975,354.683 92.4619,352.009 92.4619,348.946 C92.4619,345.56 91.79,342.845 90.4463,340.803 C89.1027,338.761 87.4365,337.121 85.4479,335.885 C83.4592,334.649 81.2825,333.681 78.9176,332.983 C76.5527,332.284 74.376,331.558 72.3874,330.806 C70.3987,330.054 68.7326,329.167 67.3889,328.146 C66.0452,327.124 65.3734,325.646 65.3734,323.711 C65.3734,322.421 65.6421,321.306 66.1796,320.366 C66.717,319.425 67.4292,318.659 68.316,318.068 C69.2028,317.477 70.1972,317.047 71.299,316.778 C72.4008,316.509 73.5429,316.375 74.7253,316.375 C76.714,316.375 78.6086,316.738 80.4091,317.463 C82.2096,318.189 83.6474,319.331 84.7223,320.89 L92.1394,313.069 Z " fill="#ffffff" fill-opacity="1.00" />			<path d="M-2.72797,117.629 C62.5955,117.629 115.476,64.748 115.476,-0.575505 C115.476,-65.899 62.5955,-118.78 -2.72797,-118.78 C-68.0515,-118.78 -120.932,-65.899 -120.932,-0.575505 C-120.932,64.748 -68.0515,117.629 -2.72797,117.629 Z " fill="#ffffff" fill-opacity="1.00" />			<path d="M-59.9527,-19.4421 L-59.9527,-17.4298 L-59.8704,-17.4298 L-59.8704,6.38657 L-59.8704,19.2096 L-59.8704,42.5348 L-59.8704,42.5348 L-59.8703,75.6559 L-26.8124,42.598 L-26.8124,39.4445 L-26.8124,-17.4298 L-26.8124,-68.8957 L-59.9163,-35.7919 L-59.9163,-19.4421 L-59.9527,-19.4421 Z " fill="#2a2a2a" fill-opacity="1.00" />			<path d="M-59.9148,-35.6622 L-59.9148,-68.7661 L-26.811,-68.7661 L-59.9148,-35.6622 Z " fill="#505050" fill-opacity="1.00" />			<path d="M-59.8784,-68.7661 L-59.8784,-35.6622 L-92.9823,-35.6622 L-59.8784,-68.7661 Z " fill="#4f4f4f" fill-opacity="1.00" />			<path d="M-18.4504,0.243383 C-18.4504,4.70438 -17.698,8.76228 -16.1931,12.4171 C-14.6881,16.0719 -12.6054,19.2026 -9.94496,21.8094 C-7.28449,24.4161 -4.11341,26.4316 -0.431743,27.8559 C3.24993,29.2802 7.29439,29.9923 11.7016,29.9923 C16.1626,29.9386 20.2474,29.1727 23.956,27.6947 C27.6645,26.2166 30.8624,24.1608 33.5498,21.5272 C36.2371,18.8936 38.3333,15.7494 39.8382,12.0946 C41.3431,8.4398 42.0956,4.3819 42.0956,-0.0790994 C42.0956,-4.64759 41.3431,-8.78611 39.8382,-12.4947 C38.3333,-16.2032 36.2371,-19.3743 33.5498,-22.0079 C30.8624,-24.6415 27.6645,-26.6436 23.956,-28.0141 C20.2474,-29.3847 16.1626,-30.0431 11.7016,-29.9893 C7.29439,-29.9893 3.24993,-29.2772 -0.431743,-27.8529 C-4.11341,-26.4286 -7.28449,-24.3996 -9.94496,-21.766 C-12.6054,-19.1324 -14.6881,-15.9479 -16.1931,-12.2125 C-17.698,-8.47707 -18.4504,-4.32511 -18.4504,0.243383 Z M-7.80852,-0.401581 C-7.80852,-3.25017 -7.33823,-5.91065 -6.39766,-8.38301 C-5.45709,-10.8554 -4.12685,-13.0187 -2.40695,-14.873 C-0.687041,-16.7272 1.36878,-18.1784 3.76052,-19.2265 C6.15226,-20.2745 8.82618,-20.7986 11.7823,-20.7986 C14.7383,-20.7986 17.4257,-20.2745 19.8443,-19.2265 C22.2629,-18.1784 24.3322,-16.7272 26.0521,-14.873 C27.772,-13.0187 29.1022,-10.8554 30.0428,-8.38301 C30.9834,-5.91065 31.4537,-3.25017 31.4537,-0.401581 C31.4537,2.662 30.9834,5.48372 30.0428,8.06357 C29.1022,10.6434 27.772,12.8739 26.0521,14.7551 C24.3322,16.6362 22.2629,18.1143 19.8443,19.1892 C17.4257,20.2641 14.7383,20.8016 11.7823,20.8016 C8.82618,20.8016 6.15226,20.2641 3.76052,19.1892 C1.36878,18.1143 -0.687041,16.6362 -2.40695,14.7551 C-4.12685,12.8739 -5.45709,10.6434 -6.39766,8.06357 C-7.33823,5.48372 -7.80852,2.662 -7.80852,-0.401581 Z M84.4751,-24.104 C82.2177,-26.2001 79.6782,-27.7051 76.8564,-28.6188 C74.0347,-29.5325 71.119,-29.9893 68.1091,-29.9893 C65.4755,-29.9893 62.8957,-29.64 60.3696,-28.9412 C57.8434,-28.2425 55.5995,-27.181 53.6377,-25.7567 C51.676,-24.3324 50.0904,-22.5453 48.8811,-20.3955 C47.6718,-18.2456 47.0672,-15.6926 47.0672,-12.7365 C47.0672,-9.35046 47.739,-6.64967 49.0827,-4.63416 C50.4264,-2.61865 52.0925,-1.00624 54.0812,0.203072 C56.0698,1.41238 58.2465,2.36639 60.6114,3.0651 C62.9763,3.76381 65.153,4.50283 67.1417,5.28216 C69.1303,6.0615 70.7965,7.0155 72.1401,8.14419 C73.4838,9.27288 74.1557,10.8853 74.1557,12.9814 C74.1557,14.2714 73.8601,15.4135 73.2688,16.4078 C72.6776,17.4021 71.8983,18.2218 70.9308,18.8667 C69.9634,19.5117 68.8885,19.9954 67.706,20.3179 C66.5236,20.6404 65.3412,20.8016 64.1587,20.8016 C61.9013,20.8016 59.7649,20.2776 57.7494,19.2295 C55.7339,18.1814 54.108,16.7168 52.8718,14.8357 L45.2129,22.2528 C47.5778,25.0476 50.3995,27.0363 53.6781,28.2187 C56.9566,29.4011 60.3696,29.9923 63.9169,29.9923 C66.7117,29.9923 69.3722,29.6161 71.8983,28.8637 C74.4244,28.1112 76.6415,26.9825 78.5495,25.4776 C80.4575,23.9727 81.9758,22.0781 83.1045,19.7939 C84.2332,17.5096 84.7976,14.8357 84.7976,11.7721 C84.7976,8.38605 84.1257,5.67183 82.7821,3.62944 C81.4384,1.58706 79.7722,-0.0522259 77.7836,-1.28841 C75.7949,-2.52459 73.6182,-3.49203 71.2533,-4.19075 C68.8885,-4.88946 66.7117,-5.61504 64.7231,-6.3675 C62.7344,-7.11996 61.0683,-8.00678 59.7246,-9.02798 C58.3809,-10.0492 57.7091,-11.5272 57.7091,-13.4621 C57.7091,-14.752 57.9778,-15.8673 58.5153,-16.8079 C59.0528,-17.7484 59.7649,-18.5143 60.6517,-19.1055 C61.5386,-19.6968 62.5329,-20.1267 63.6347,-20.3955 C64.7365,-20.6642 65.8786,-20.7986 67.0611,-20.7986 C69.0497,-20.7986 70.9443,-20.4358 72.7448,-19.7102 C74.5453,-18.9846 75.9831,-17.8425 77.058,-16.2838 L84.4751,-24.104 Z " fill="#2a2a2a" fill-opacity="1.00" />			<path d="M-514.623,-1494.68 C-386.133,-1494.68 -282.117,-1598.69 -282.117,-1727.18 C-282.117,-1855.67 -386.133,-1959.69 -514.623,-1959.69 C-643.114,-1959.69 -747.13,-1855.67 -747.13,-1727.18 C-747.13,-1598.69 -643.114,-1494.68 -514.623,-1494.68 Z " fill="#000f4e" fill-opacity="1.00" />			<path d="M-640.069,-1655.12 L-640.143,-1655.12 L-640.143,-1589.24 L-640.069,-1589.33 L-640.069,-1589.24 L-586.971,-1655.03 L-586.971,-1661.3 L-586.971,-1774.48 L-586.971,-1876.9 L-669.637,-1774.48 L-640.069,-1774.48 L-640.069,-1727.09 L-640.069,-1701.57 L-640.069,-1655.15 L-640.069,-1655.15 L-640.069,-1655.12 L-640.069,-1655.12 Z " fill="#ced6ff" fill-opacity="1.00" />			<path d="M-566.613,-1732.6 C-566.613,-1723.9 -565.146,-1715.98 -562.211,-1708.86 C-559.276,-1701.73 -555.215,-1695.62 -550.027,-1690.54 C-544.839,-1685.46 -538.655,-1681.53 -531.475,-1678.75 C-524.296,-1675.97 -516.409,-1674.58 -507.815,-1674.58 C-499.115,-1674.69 -491.15,-1676.18 -483.918,-1679.06 C-476.686,-1681.95 -470.45,-1685.96 -465.209,-1691.09 C-459.969,-1696.23 -455.881,-1702.36 -452.946,-1709.49 C-450.012,-1716.61 -448.544,-1724.53 -448.544,-1733.23 C-448.544,-1742.13 -450.012,-1750.2 -452.946,-1757.44 C-455.881,-1764.67 -459.969,-1770.85 -465.209,-1775.99 C-470.45,-1781.12 -476.686,-1785.03 -483.918,-1787.7 C-491.15,-1790.37 -499.115,-1791.66 -507.815,-1791.55 C-516.409,-1791.55 -524.296,-1790.16 -531.475,-1787.39 C-538.655,-1784.61 -544.839,-1780.65 -550.027,-1775.52 C-555.215,-1770.38 -559.276,-1764.17 -562.211,-1756.89 C-565.146,-1749.6 -566.613,-1741.51 -566.613,-1732.6 Z M-545.861,-1733.85 C-545.861,-1739.41 -544.944,-1744.6 -543.109,-1749.42 C-541.275,-1754.24 -538.681,-1758.46 -535.327,-1762.07 C-531.973,-1765.69 -527.964,-1768.52 -523.3,-1770.56 C-518.636,-1772.61 -513.422,-1773.63 -507.657,-1773.63 C-501.893,-1773.63 -496.652,-1772.61 -491.936,-1770.56 C-487.219,-1768.52 -483.184,-1765.69 -479.83,-1762.07 C-476.476,-1758.46 -473.882,-1754.24 -472.048,-1749.42 C-470.214,-1744.6 -469.297,-1739.41 -469.297,-1733.85 C-469.297,-1727.88 -470.214,-1722.38 -472.048,-1717.35 C-473.882,-1712.32 -476.476,-1707.97 -479.83,-1704.3 C-483.184,-1700.63 -487.219,-1697.75 -491.936,-1695.65 C-496.652,-1693.55 -501.893,-1692.51 -507.657,-1692.51 C-513.422,-1692.51 -518.636,-1693.55 -523.3,-1695.65 C-527.964,-1697.75 -531.973,-1700.63 -535.327,-1704.3 C-538.681,-1707.97 -541.275,-1712.32 -543.109,-1717.35 C-544.944,-1722.38 -545.861,-1727.88 -545.861,-1733.85 Z M-365.901,-1780.08 C-370.303,-1784.16 -375.256,-1787.1 -380.758,-1788.88 C-386.261,-1790.66 -391.947,-1791.55 -397.816,-1791.55 C-402.952,-1791.55 -407.983,-1790.87 -412.909,-1789.51 C-417.835,-1788.15 -422.211,-1786.08 -426.036,-1783.3 C-429.862,-1780.52 -432.954,-1777.04 -435.312,-1772.84 C-437.67,-1768.65 -438.849,-1763.67 -438.849,-1757.91 C-438.849,-1751.31 -437.539,-1746.04 -434.919,-1742.11 C-432.299,-1738.18 -429.049,-1735.03 -425.172,-1732.68 C-421.294,-1730.32 -417.049,-1728.46 -412.437,-1727.09 C-407.825,-1725.73 -403.581,-1724.29 -399.703,-1722.77 C-395.825,-1721.25 -392.575,-1719.39 -389.955,-1717.19 C-387.335,-1714.99 -386.025,-1711.84 -386.025,-1707.76 C-386.025,-1705.24 -386.601,-1703.01 -387.754,-1701.08 C-388.907,-1699.14 -390.427,-1697.54 -392.313,-1696.28 C-394.2,-1695.02 -396.296,-1694.08 -398.602,-1693.45 C-400.908,-1692.82 -403.214,-1692.51 -405.52,-1692.51 C-409.922,-1692.51 -414.088,-1693.53 -418.018,-1695.57 C-421.949,-1697.62 -425.119,-1700.47 -427.53,-1704.14 L-442.465,-1689.68 C-437.854,-1684.23 -432.351,-1680.35 -425.958,-1678.04 C-419.564,-1675.74 -412.909,-1674.58 -405.991,-1674.58 C-400.541,-1674.58 -395.353,-1675.32 -390.427,-1676.79 C-385.501,-1678.25 -381.177,-1680.45 -377.457,-1683.39 C-373.736,-1686.32 -370.775,-1690.02 -368.574,-1694.47 C-366.373,-1698.93 -365.272,-1704.14 -365.272,-1710.12 C-365.272,-1716.72 -366.582,-1722.01 -369.203,-1725.99 C-371.823,-1729.98 -375.072,-1733.17 -378.95,-1735.58 C-382.828,-1737.99 -387.073,-1739.88 -391.685,-1741.24 C-396.296,-1742.61 -400.541,-1744.02 -404.419,-1745.49 C-408.297,-1746.96 -411.546,-1748.69 -414.166,-1750.68 C-416.787,-1752.67 -418.097,-1755.55 -418.097,-1759.32 C-418.097,-1761.84 -417.573,-1764.01 -416.525,-1765.85 C-415.477,-1767.68 -414.088,-1769.18 -412.358,-1770.33 C-410.629,-1771.48 -408.69,-1772.32 -406.541,-1772.84 C-404.393,-1773.37 -402.166,-1773.63 -399.86,-1773.63 C-395.982,-1773.63 -392.287,-1772.92 -388.776,-1771.51 C-385.265,-1770.09 -382.461,-1767.87 -380.365,-1764.83 L-365.901,-1780.08 Z " fill="#ffffff" fill-opacity="1.00" />		</g>	</svg>