<?xml version="1.0" encoding="UTF-8" standalone="no"?>
<!DOCTYPE svg PUBLIC "-//W3C//DTD SVG 1.1//EN" "http://www.w3.org/Graphics/SVG/1.1/DTD/svg11.dtd">
<svg width="100%" height="100%" viewBox="0 0 512 512" version="1.1" xmlns="http://www.w3.org/2000/svg" xmlns:xlink="http://www.w3.org/1999/xlink" xml:space="preserve" xmlns:serif="http://www.serif.com/" style="fill-rule:evenodd;clip-rule:evenodd;stroke-linejoin:round;stroke-miterlimit:2;">
    <g transform="matrix(0.673524,0,0,0.673524,81.3106,-7.5713)">
        <g transform="matrix(1.03255,0,0,0.631602,-7.42365,39.3637)">
            <g>
                <path d="M487.125,229.706L313.332,380.897L389.022,248.441C393.138,241.249 390.633,232.079 383.441,227.977C376.249,223.817 367.079,226.351 362.977,233.558L270.999,394.514L270.999,240.985C270.999,232.694 264.29,225.985 256,225.985C247.709,225.985 241,232.694 241,240.985L241,394.514L149.023,233.559C144.907,226.352 135.708,223.818 128.559,227.978C121.367,232.08 118.862,241.249 122.978,248.442L198.668,380.898L24.874,229.706L5.128,252.294L241,457.806L241,480.998C241,489.289 247.709,495.998 256,495.998C264.29,495.998 270.999,489.289 270.999,480.998L270.999,457.806L506.871,252.294L487.125,229.706Z" style="fill:rgb(226,226,226);fill-rule:nonzero;"/>
            </g>
        </g>
        <g transform="matrix(0.602131,0.00199345,-0.00192827,0.58244,-21.337,259.189)">
            <path d="M562.333,97.765L562.333,667.232L384.435,814.125L384.435,137.488L452.497,202.206L562.333,97.765Z" style="fill:rgb(244,244,244);"/>
        </g>
        <g transform="matrix(0.726379,0.168752,-0.188542,0.811567,-273.416,28.7553)">
            <path d="M859.407,177.865L748.943,319.183L586.115,319.183L713.058,177.865L859.407,177.865Z" style="fill:white;"/>
        </g>
        <g transform="matrix(1.03255,0,0,0.782786,-7.42365,1.1459)">
            <g>
                <path d="M511.427,236.884L500.88,199.955C469.928,91.645 368.646,16.001 256,16.001C143.353,16.001 42.072,91.645 11.12,199.956L0.573,236.884C-1.053,242.597 0.851,248.749 5.422,252.543C9.992,256.321 16.379,257.039 21.711,254.418C55.051,237.704 95.879,237.719 129.277,254.403C133.525,256.511 138.476,256.511 142.695,254.403C176.064,237.733 215.937,237.733 249.306,254.403C253.525,256.511 258.504,256.511 262.723,254.403C296.107,237.733 335.936,237.748 369.29,254.418C373.509,256.526 378.489,256.526 382.708,254.418C416.077,237.719 456.92,237.719 490.289,254.418C495.623,257.066 501.986,256.352 506.578,252.543C511.149,248.749 513.053,242.597 511.427,236.884Z" style="fill:rgb(96,63,255);fill-rule:nonzero;"/>
            </g>
        </g>
    </g>
</svg>
