<?xml version="1.0" encoding="UTF-8" standalone="no"?>
<!DOCTYPE svg PUBLIC "-//W3C//DTD SVG 1.1//EN" "http://www.w3.org/Graphics/SVG/1.1/DTD/svg11.dtd">
<svg width="100%" height="100%" viewBox="0 0 512 512" version="1.1" xmlns="http://www.w3.org/2000/svg" xmlns:xlink="http://www.w3.org/1999/xlink" xml:space="preserve" xmlns:serif="http://www.serif.com/" style="fill-rule:evenodd;clip-rule:evenodd;stroke-linejoin:round;stroke-miterlimit:2;">
    <g id="_019---Astronaut-Sitting-On-Planet" serif:id="019---Astronaut-Sitting-On-Planet">
        <path id="Shape" d="M159.779,296.96C151.021,293.486 144.769,285.62 143.36,276.303L122.615,137.799C120.637,124.646 128.721,112.068 141.506,108.403L203.299,88.276L198.621,309.937C185.158,307.344 172.097,302.98 159.779,296.96Z" style="fill:rgb(185,187,237);fill-rule:nonzero;"/>
        <path id="Shape1" serif:id="Shape" d="M366.345,397.241C366.371,405.888 365.393,414.508 363.432,422.93C289.421,435.774 213.751,435.774 139.741,422.93C131.695,387.837 140.585,351.003 163.752,323.443C231.901,242.052 366.345,289.81 366.345,397.241Z" style="fill:rgb(129,254,196);fill-rule:nonzero;"/>
        <path id="Shape2" serif:id="Shape" d="M365.021,380.028C361.178,393.161 349.133,402.186 335.448,402.185C318.464,401.994 304.743,388.272 304.552,371.288L304.552,388.414C304.755,403.244 294.561,416.197 280.099,419.487C270.918,421.48 261.33,419.175 254.058,413.227C246.786,407.278 242.626,398.337 242.759,388.943L242.759,331.652C242.88,327.497 240.085,323.821 236.05,322.825C193.766,312.32 189.881,312.585 182.29,305.17C214.632,280.726 257.472,275.161 294.986,290.529C332.501,305.897 359.123,339.918 365.021,380.028Z" style="fill:rgb(92,189,144);fill-rule:nonzero;"/>
        <path id="Shape3" serif:id="Shape" d="M363.432,422.93C351.458,475.053 305.067,511.995 251.586,511.995C198.105,511.995 151.714,475.053 139.741,422.93C213.755,435.73 289.417,435.73 363.432,422.93Z" style="fill:rgb(129,254,196);fill-rule:nonzero;"/>
        <g id="Shape4" serif:id="Shape" transform="matrix(0.98692,0.161211,-0.161211,0.98692,59.9946,-33.957)">
            <path d="M472.276,397.241C472.276,437.142 413.661,461.065 339.862,471.04C281.546,478.54 222.509,478.54 164.193,471.04C89.512,461.065 30.897,437.142 30.897,397.241C30.897,357.341 89.512,333.418 163.752,323.443C155.426,333.329 148.83,344.551 144.243,356.634C53.76,373.319 51.73,406.069 139.741,422.93C213.755,435.73 289.417,435.73 363.432,422.93C447.647,406.599 450.737,375.526 366.345,358.047L366.345,327.857C427.343,339.597 472.276,361.931 472.276,397.241Z" style="fill:rgb(255,74,231);fill-opacity:0.47;fill-rule:nonzero;"/>
        </g>
        <g id="Shape5" serif:id="Shape" transform="matrix(0.990762,-0.135611,0.135611,0.990762,-51.9276,27.8135)">
            <path d="M472.276,397.241C472.276,437.142 413.661,461.065 339.862,471.04C281.546,478.54 222.509,478.54 164.193,471.04C89.512,461.065 30.897,437.142 30.897,397.241C30.897,357.341 89.512,333.418 163.752,323.443C155.426,333.329 148.83,344.551 144.243,356.634C53.76,373.319 51.73,406.069 139.741,422.93C213.755,435.73 289.417,435.73 363.432,422.93C447.647,406.599 450.737,375.526 366.345,358.047L366.345,327.857C427.343,339.597 472.276,361.931 472.276,397.241Z" style="fill:rgb(255,234,135);fill-opacity:0.84;fill-rule:nonzero;"/>
        </g>
        <path id="Shape6" serif:id="Shape" d="M366.345,269.241C366.345,363.079 367.492,361.931 363.255,370.759C359.778,378.165 353.482,383.872 345.771,386.609C338.06,389.345 329.575,388.882 322.207,385.324C311.489,380.193 304.636,369.399 304.552,357.517L304.552,374.29C304.755,389.12 294.561,402.073 280.099,405.363C270.979,407.342 261.454,405.08 254.197,399.212C246.94,393.345 242.734,384.505 242.759,375.172L242.759,317.793C242.88,313.638 240.085,309.961 236.05,308.966C191.294,297.843 195.09,298.902 193.236,298.196C180.822,293.879 172.406,282.293 172.138,269.153L172.138,172.668L311.437,162.781L358.488,248.673C363.559,254.323 366.357,261.65 366.345,269.241Z" style="fill:rgb(72,79,233);fill-rule:nonzero;"/>
        <path id="Shape7" serif:id="Shape" d="M322.207,273.655L322.207,385.324C311.43,380.26 304.55,369.425 304.552,357.517C304.552,264.563 305.699,269.241 301.286,262.091C299.746,258.065 301.34,253.516 305.055,251.33C308.771,249.145 313.521,249.962 316.292,253.263C320.086,259.395 322.131,266.446 322.207,273.655Z" style="fill:rgb(66,70,157);fill-rule:nonzero;"/>
        <path id="Shape8" serif:id="Shape" d="M176.022,145.037C172.579,150.775 172.668,153.247 170.108,168.96C164.367,203.36 181.732,237.481 212.921,253.087C270.301,281.688 269.859,282.483 278.069,282.483C287.636,282.475 296.456,277.307 301.139,268.964C305.823,260.622 305.643,250.401 300.668,242.229C295.371,233.401 288.75,231.812 266.858,220.778L236.668,205.683C229.104,201.917 223.791,194.767 222.367,186.439L176.022,145.037Z" style="fill:rgb(124,130,255);fill-rule:nonzero;"/>
        <path id="Shape9" serif:id="Shape" d="M295.724,187.586C316.734,233.931 298.196,240.552 306.67,258.825C317.705,283.012 373.054,285.308 357.252,204.094C354.339,188.822 349.043,167.106 336.772,156.601L295.724,187.586Z" style="fill:rgb(124,130,255);fill-rule:nonzero;"/>
        <path id="Shape10" serif:id="Shape" d="M163.31,97.103C163.31,150.732 206.785,194.207 260.414,194.207C314.043,194.207 357.517,150.732 357.517,97.103C357.517,43.475 314.043,0 260.414,0C206.785,0 163.31,43.475 163.31,97.103Z" style="fill:rgb(156,161,255);fill-rule:nonzero;"/>
        <path id="Shape11" serif:id="Shape" d="M345.247,144.331C308.877,167.018 254.058,162.604 225.103,135.062C182.378,94.72 221.396,35.31 291.31,35.31C310.296,35.04 328.979,40.085 345.247,49.876C361.592,79.24 361.592,114.967 345.247,144.331Z" style="fill:rgb(255,252,242);fill-rule:nonzero;"/>
        <path id="Shape12" serif:id="Shape" d="M331.034,105.931C326.159,105.931 322.207,101.979 322.207,97.103C322.207,70.621 288.309,70.621 286.897,70.621C282.021,70.621 278.069,66.668 278.069,61.793C278.069,56.918 282.021,52.966 286.897,52.966C305.258,52.966 339.862,61.793 339.862,97.103C339.862,101.979 335.91,105.931 331.034,105.931Z" style="fill:rgb(164,255,213);fill-rule:nonzero;"/>
        <path id="Shape13" serif:id="Shape" d="M353.898,123.586C351.784,130.881 348.821,137.903 345.07,144.508C319.086,159.577 288.014,163.189 259.266,154.483C214.334,140.888 195.178,102.4 215.128,71.327C243.2,104.077 288.221,135.15 353.898,123.586Z" style="fill:rgb(255,223,177);fill-rule:nonzero;"/>
    </g>
</svg>
