<?xml version="1.0" encoding="UTF-8" standalone="no"?>
<!DOCTYPE svg PUBLIC "-//W3C//DTD SVG 1.1//EN" "http://www.w3.org/Graphics/SVG/1.1/DTD/svg11.dtd">
<svg width="100%" height="100%" viewBox="0 0 512 512" version="1.1" xmlns="http://www.w3.org/2000/svg" xmlns:xlink="http://www.w3.org/1999/xlink" xml:space="preserve" xmlns:serif="http://www.serif.com/" style="fill-rule:evenodd;clip-rule:evenodd;stroke-linejoin:round;stroke-miterlimit:2;">
    <path d="M122.436,511.881C115.603,512.801 109.125,508.288 107.707,501.433C103.738,482.243 108.426,463.676 120.568,450.492C133.544,436.402 153.846,429.893 176.268,432.637C208.214,436.546 214.316,420.264 222.346,391.149C223.375,387.418 224.439,383.56 225.592,379.862C227.771,372.877 235.199,368.982 242.183,371.159C249.168,373.337 253.064,380.766 250.886,387.75C249.863,391.028 248.904,394.508 247.888,398.193C243.971,412.396 239.531,428.495 229.053,440.854C216.344,455.844 197.503,461.928 173.05,458.936C159.001,457.218 147.285,460.594 140.058,468.44C133.677,475.369 131.403,485.179 133.654,496.065C135.136,503.23 130.529,510.239 123.364,511.721C123.055,511.787 122.744,511.84 122.436,511.881Z" style="fill:rgb(222,226,229);fill-rule:nonzero;"/>
    <path d="M122.436,511.881C122.744,511.839 123.055,511.787 123.364,511.723C130.529,510.241 135.136,503.232 133.654,496.067C133.027,493.037 132.764,490.095 132.83,487.271C124.219,485.376 113.686,486.828 106.357,488.94C106.407,493.043 106.836,497.221 107.708,501.434C109.125,508.288 115.603,512.802 122.436,511.881Z" style="fill:rgb(101,84,255);fill-rule:nonzero;"/>
    <path d="M284.042,509.517C281.718,509.83 279.304,509.76 276.877,509.253C265.418,506.859 258.069,495.629 260.462,484.17C265.738,458.912 253.77,438.181 244.987,431.047C235.9,423.667 234.516,410.317 241.897,401.23C249.278,392.142 262.627,390.761 271.714,398.141C283.132,407.414 292.54,421.264 298.205,437.139C304.555,454.937 305.855,474.198 301.961,492.839C300.074,501.872 292.694,508.352 284.042,509.517Z" style="fill:rgb(222,226,229);fill-rule:nonzero;"/>
    <path d="M284.042,509.517C281.718,509.83 279.304,509.76 276.877,509.253C265.418,506.859 258.069,495.629 260.462,484.17C265.738,458.912 253.77,438.181 244.987,431.047C235.9,423.667 234.516,410.317 241.897,401.23C249.278,392.142 262.627,390.761 271.714,398.141C283.132,407.414 292.54,421.264 298.205,437.139C304.555,454.937 305.855,474.198 301.961,492.839C300.074,501.872 292.694,508.352 284.042,509.517Z" style="fill-opacity:0.1;fill-rule:nonzero;"/>
    <g>
        <path d="M110.385,398.754C103.311,399.707 95.924,397.064 91.09,391.121C83.703,382.039 85.078,368.688 94.16,361.302C122.071,338.603 175.585,335.076 202.965,339.839C214.498,341.846 222.221,352.822 220.215,364.356C218.208,375.889 207.234,383.613 195.699,381.606C173.567,377.756 135.272,382.511 120.909,394.192C117.771,396.744 114.121,398.25 110.385,398.754Z" style="fill:rgb(232,232,232);fill-rule:nonzero;"/>
        <path d="M375.195,481.118C373.979,481.282 372.733,481.342 371.466,481.289C359.769,480.806 350.678,470.932 351.161,459.236C352.016,438.542 339.477,430.038 326.56,423.102L325.991,422.796C315.682,417.25 311.821,404.396 317.367,394.087C322.913,383.778 335.768,379.917 346.077,385.463L346.615,385.752C358.716,392.25 395.541,412.024 393.519,460.984C393.088,471.414 385.192,479.771 375.195,481.118Z" style="fill:rgb(222,226,229);fill-rule:nonzero;"/>
    </g>
    <path d="M375.195,481.118C373.979,481.282 372.733,481.342 371.466,481.289C359.769,480.806 350.678,470.932 351.161,459.236C352.016,438.542 339.477,430.038 326.56,423.102L325.991,422.796C315.682,417.25 311.821,404.396 317.367,394.087C322.913,383.778 335.768,379.917 346.077,385.463L346.615,385.752C358.716,392.25 395.541,412.024 393.519,460.984C393.088,471.414 385.192,479.771 375.195,481.118Z" style="fill-opacity:0.1;fill-rule:nonzero;"/>
    <path d="M457.508,355.277C454.731,355.652 451.836,355.478 448.966,354.674C416.841,345.67 390.796,347.762 367,361.262C356.814,367.038 343.88,363.465 338.104,353.284C332.327,343.102 335.899,330.165 346.082,324.388C379.888,305.212 417.283,301.766 460.409,313.854C471.681,317.014 478.257,328.713 475.097,339.986C472.743,348.388 465.64,354.181 457.508,355.277Z" style="fill:rgb(237,237,237);fill-rule:nonzero;"/>
    <path d="M229.053,440.855C239.531,428.495 243.971,412.397 247.888,398.194C248.904,394.51 249.864,391.029 250.886,387.751C253.064,380.766 249.168,373.338 242.183,371.159C235.198,368.982 227.77,372.878 225.592,379.862C224.439,383.56 223.375,387.418 222.346,391.149C216.55,412.165 211.754,426.49 197.522,431.366C199.231,432.943 200.992,434.477 202.813,435.958C208.586,440.654 214.818,444.747 221.38,448.246C224.144,446.086 226.704,443.624 229.053,440.855Z" style="fill-opacity:0.2;fill-rule:nonzero;"/>
    <path d="M373.033,418.574C374.981,416.206 376.814,413.779 378.543,411.305C367.491,396.967 353.291,389.337 346.615,385.752L346.077,385.463C335.768,379.917 322.913,383.778 317.367,394.087C311.821,404.396 315.682,417.25 325.991,422.796L326.56,423.102C334.963,427.614 343.201,432.793 347.701,441.555C357.172,435.187 365.711,427.478 373.033,418.574Z" style="fill-opacity:0.1;fill-rule:nonzero;"/>
    <path d="M295.294,461.292C298.05,460.921 300.779,460.458 303.479,459.914C302.594,452.17 300.842,444.528 298.206,437.139C292.541,421.264 283.133,407.414 271.715,398.141C262.628,390.761 249.279,392.143 241.898,401.231C234.517,410.318 235.901,423.668 244.988,431.048C250.893,435.844 258.231,446.792 260.807,461.125C266.623,461.969 272.525,462.425 278.477,462.425C284.06,462.424 289.718,462.043 295.294,461.292Z" style="fill-opacity:0.1;fill-rule:nonzero;"/>
    <path d="M338.105,353.283C343.881,363.464 356.816,367.037 367.001,361.261C376.904,355.643 387.199,352.008 398.157,350.318C398.175,345.472 397.867,340.597 397.209,335.715C395.948,326.353 393.436,317.284 389.788,308.698C374.513,311.276 359.993,316.496 346.082,324.387C335.9,330.164 332.328,343.101 338.105,353.283Z" style="fill-opacity:0.2;fill-rule:nonzero;"/>
    <path d="M220.216,364.355C222.223,352.821 214.499,341.845 202.966,339.838C192.7,338.052 178.759,337.432 163.872,338.551C162.558,347.859 162.476,357.453 163.783,367.157C164.405,371.778 165.339,376.325 166.556,380.781C177.129,379.937 187.518,380.181 195.699,381.605C207.235,383.612 218.209,375.888 220.216,364.355Z" style="fill-opacity:0.2;fill-rule:nonzero;"/>
    <g transform="matrix(-0.1335,-0.991,0.991,-0.1335,-30.3337,676.319)">
        <ellipse cx="280.493" cy="351.42" rx="90.846" ry="97.765" style="fill:rgb(236,241,245);"/>
    </g>
    <path d="M278.346,442.418C230.154,419.313 235.85,357.885 239.857,330.817L232.108,273.286C198.878,291.559 178.557,327.007 183.605,364.487C189.701,409.746 230.684,442.358 278.346,442.418Z" style="fill-opacity:0.1;fill-rule:nonzero;"/>
    <path d="M484.679,139.613C498.182,239.857 403.147,307.823 276.912,324.827C150.677,341.832 41.045,301.434 27.542,201.19C14.04,100.946 92.368,22.782 233.663,3.75C374.958,-15.282 471.176,39.369 484.679,139.613Z" style="fill:rgb(114,117,249);fill-rule:nonzero;"/>
    <path d="M277.311,327.787C237.096,333.204 199.381,331.726 168.914,321.903L164.759,340.721C163.199,347.788 167.616,354.791 174.665,356.431C205.568,363.619 241.898,364.64 281.555,359.298C321.212,353.956 355.977,343.358 383.877,328.25C390.241,324.804 392.648,316.881 389.273,310.479L380.287,293.431C353.505,310.965 317.525,322.37 277.311,327.787Z" style="fill:rgb(101,84,255);fill-rule:nonzero;"/>
    <path d="M200.502,203.261C217.319,184.798 226.38,156.387 194.319,120.509C162.006,84.348 120.533,79.78 89.7,87.691C82.099,89.641 76.35,95.952 75.116,103.702C70.11,135.137 78.521,176.005 117.534,204.811C156.241,233.391 183.686,221.723 200.502,203.261Z" style="fill:rgb(237,167,81);fill-rule:nonzero;"/>
    <path d="M74.478,108.495C71.039,139.203 80.474,177.446 117.534,204.811C151.084,229.583 176.166,224.112 193.207,210.193C168.746,125.176 109.832,109.693 74.478,108.495Z" style="fill:rgb(255,145,171);fill-rule:nonzero;"/>
    <path d="M318.432,187.376C297.33,174.021 281.073,149.02 302.498,105.938C324.092,62.516 362.878,47.136 394.705,46.607C402.551,46.477 409.765,51.042 413.006,58.189C426.151,87.179 428.853,128.816 398.853,166.918C369.088,204.721 339.534,200.731 318.432,187.376Z" style="fill:rgb(237,167,81);fill-rule:nonzero;"/>
    <path d="M414.889,62.641C426.33,91.345 427.351,130.721 398.853,166.917C373.054,199.684 347.418,201.044 327.302,192.13C328.395,103.671 381.112,73.151 414.889,62.641Z" style="fill:rgb(255,145,171);fill-rule:nonzero;"/>
    <path d="M427.658,197.11C437.817,272.533 368.414,315.515 277.31,327.787C186.207,340.059 107.904,316.973 97.744,241.55C87.584,166.127 153.203,95.036 244.306,82.765C335.409,70.493 417.499,121.687 427.658,197.11Z" style="fill:rgb(255,220,156);fill-rule:nonzero;"/>
    <g>
        <g transform="matrix(-0.1335,-0.991,0.991,-0.1335,-24.8158,445.099)">
            <ellipse cx="182.172" cy="233.398" rx="23.999" ry="30.139" style="fill:rgb(255,145,171);"/>
        </g>
        <g transform="matrix(0.1335,0.991,-0.991,0.1335,507.874,-157.64)">
            <ellipse cx="344.087" cy="211.619" rx="23.999" ry="30.139" style="fill:rgb(255,145,171);"/>
        </g>
    </g>
    <g>
        <path d="M196.386,214.844C192.688,214.844 189.469,212.11 188.963,208.344L187.542,197.797C186.989,193.692 189.868,189.916 193.973,189.363C198.084,188.804 201.854,191.689 202.407,195.794L203.828,206.341C204.381,210.446 201.502,214.222 197.397,214.776C197.057,214.821 196.719,214.844 196.386,214.844Z" style="fill:rgb(73,80,89);fill-rule:nonzero;"/>
        <path d="M323.463,197.726C319.766,197.726 316.547,194.992 316.04,191.226L314.619,180.679C314.065,176.574 316.945,172.798 321.051,172.244C325.143,171.698 328.932,174.57 329.485,178.676L330.906,189.223C331.46,193.328 328.58,197.104 324.474,197.657C324.135,197.704 323.797,197.726 323.463,197.726Z" style="fill:rgb(73,80,89);fill-rule:nonzero;"/>
        <path d="M258.036,214.583C250.822,214.583 243.798,211.969 238.299,207.145C235.185,204.413 234.875,199.675 237.607,196.561C240.34,193.448 245.078,193.138 248.191,195.869C251.44,198.72 255.755,200.026 260.024,199.45C264.294,198.875 268.108,196.475 270.489,192.866C272.769,189.407 277.422,188.454 280.88,190.735C284.337,193.015 285.291,197.668 283.011,201.125C278.243,208.354 270.595,213.162 262.027,214.316C260.695,214.495 259.362,214.583 258.036,214.583Z" style="fill:rgb(73,80,89);fill-rule:nonzero;"/>
        <path d="M139.703,243.815C136.722,243.815 133.902,242.026 132.732,239.087C131.2,235.239 133.078,230.877 136.926,229.345C144.933,226.157 164.486,222.021 174.281,221.996L174.301,221.996C178.434,221.996 181.79,225.341 181.801,229.477C181.811,233.619 178.462,236.985 174.32,236.996C166.672,237.016 148.811,240.759 142.475,243.281C141.565,243.644 140.626,243.815 139.703,243.815Z" style="fill:rgb(73,80,89);fill-rule:nonzero;"/>
        <path d="M153.972,277.923C152.013,277.923 150.057,277.16 148.586,275.643C145.703,272.669 145.777,267.921 148.752,265.038C154.941,259.039 171.443,247.765 180.489,244.011C184.315,242.423 188.703,244.237 190.291,248.063C191.878,251.889 190.064,256.277 186.239,257.865C179.176,260.796 164.089,271.062 159.192,275.809C157.734,277.221 155.852,277.923 153.972,277.923Z" style="fill:rgb(73,80,89);fill-rule:nonzero;"/>
        <path d="M350.637,213.245C347.336,213.245 344.311,211.048 343.405,207.709C342.319,203.711 344.678,199.591 348.677,198.505C358.129,195.938 378.082,194.752 386.644,195.708C390.761,196.167 393.726,199.877 393.267,203.993C392.808,208.11 389.088,211.081 384.982,210.615C378.202,209.859 359.989,210.975 352.609,212.98C351.949,213.159 351.288,213.245 350.637,213.245Z" style="fill:rgb(73,80,89);fill-rule:nonzero;"/>
        <path d="M381.069,247.333C379.849,247.333 378.612,247.035 377.466,246.406C371.488,243.124 354.222,237.216 346.635,236.258C342.526,235.739 339.614,231.987 340.133,227.878C340.654,223.768 344.407,220.857 348.514,221.377C358.232,222.604 377.129,229.11 384.685,233.257C388.316,235.25 389.643,239.81 387.65,243.441C386.286,245.927 383.719,247.333 381.069,247.333Z" style="fill:rgb(73,80,89);fill-rule:nonzero;"/>
        <g transform="matrix(0.0641994,-0.00633288,0.00633288,0.0641994,251.041,361.398)">
            <circle cx="610.306" cy="602.236" r="439.043" style="fill:rgb(101,84,255);"/>
        </g>
        <g transform="matrix(0.03046,-0.025071,0.025071,0.03046,237.6,415.395)">
            <path d="M1369.13,275.045C1369.13,212.776 1318.57,162.221 1256.31,162.221C1194.04,162.221 1143.48,212.776 1143.48,275.045L1143.48,752.065C1143.48,814.334 1194.04,864.889 1256.31,864.889C1318.57,864.889 1369.13,814.334 1369.13,752.065L1369.13,275.045Z" style="fill:white;"/>
        </g>
        <g transform="matrix(1.13181,-0.111646,0.111646,1.13181,263.063,370.725)">
            <path d="M31.185,29.727C31.076,29.373 30.914,29.029 30.697,28.705L27.344,23.702L30.859,18.456C32.062,16.661 34.495,16.18 36.289,17.383C38.084,18.585 38.564,21.018 37.362,22.812L31.575,31.45C31.578,30.866 31.451,30.276 31.185,29.727Z" style="fill:white;"/>
        </g>
    </g>
    <circle cx="441.02" cy="409.1" r="15.703" style="fill:white;"/>
    <circle cx="52.659" cy="330.9" r="15.703" style="fill:white;"/>
    <circle cx="82" cy="437.93" r="15.703" style="fill:white;"/>
    <path d="M192.013,11.491C77.205,39.144 15.432,111.281 27.542,201.19C37.772,277.133 103.179,318.718 189.174,327.029C215.448,332.04 245.602,332.059 277.31,327.787C277.343,327.783 277.376,327.777 277.409,327.773C90.65,303.166 135.509,91.392 192.013,11.491Z" style="fill-opacity:0.1;fill-rule:nonzero;"/>
</svg>
