<?xml version="1.0" encoding="UTF-8" standalone="no"?>
<!DOCTYPE svg PUBLIC "-//W3C//DTD SVG 1.1//EN" "http://www.w3.org/Graphics/SVG/1.1/DTD/svg11.dtd">
<svg width="100%" height="100%" viewBox="0 0 162 204" version="1.1" xmlns="http://www.w3.org/2000/svg" xmlns:xlink="http://www.w3.org/1999/xlink" xml:space="preserve" xmlns:serif="http://www.serif.com/" style="fill-rule:evenodd;clip-rule:evenodd;stroke-linejoin:round;stroke-miterlimit:2;">
    <g transform="matrix(1,0,0,1,-59.6719,-7.02065)">
        <g>
            <g>
                <g>
                    <g>
                        <g>
                            <path d="M219.398,144.75L131.156,205.111C129.141,206.5 125.602,206.333 123.258,204.722L65.484,165.194C64.289,164.389 63.656,163.361 63.563,162.361L63.563,166.778C63.656,167.778 64.313,168.778 65.484,169.583L123.258,209.111C125.602,210.722 129.141,210.889 131.156,209.5L219.398,149.167C220.313,148.556 220.758,147.722 220.758,146.833L220.758,142.556C220.711,143.361 220.266,144.167 219.398,144.75Z" style="fill:rgb(235,235,235);fill-rule:nonzero;"/>
                        </g>
                        <g>
                            <path d="M195.258,123.222L218.836,139.361C221.18,140.972 221.438,143.389 219.398,144.778L131.156,205.111C129.141,206.5 125.602,206.333 123.258,204.722L99.68,188.583L195.258,123.222Z" style="fill:white;fill-rule:nonzero;"/>
                            <path d="M99.68,188.583L65.484,165.167C63.141,163.556 62.883,161.139 64.922,159.75L153.141,99.389C155.156,98 158.695,98.167 161.039,99.778L195.258,123.194L99.68,188.583Z" style="fill:white;fill-rule:nonzero;"/>
                            <g>
                                <g>
                                    <path d="M85.055,165.167L80.625,168.194C80.344,168.389 79.875,168.361 79.57,168.139L75.352,165.25C75.047,165.028 75,164.722 75.281,164.528L79.688,161.5C79.945,161.306 80.438,161.333 80.742,161.556L84.961,164.444C85.289,164.667 85.313,165 85.055,165.167Z" style="fill:rgb(235,235,235);fill-rule:nonzero;"/>
                                    <path d="M91.031,161.083L86.625,164.111C86.344,164.306 85.875,164.278 85.57,164.056L81.352,161.167C81.047,160.944 81,160.639 81.281,160.444L85.687,157.417C85.969,157.222 86.437,157.25 86.742,157.472L90.961,160.361C91.266,160.583 91.289,160.917 91.031,161.083Z" style="fill:rgb(235,235,235);fill-rule:nonzero;"/>
                                    <path d="M97.008,157L92.578,160.028C92.297,160.222 91.828,160.194 91.523,159.972L87.305,157.083C87,156.861 86.953,156.556 87.234,156.361L91.641,153.333C91.922,153.139 92.391,153.167 92.695,153.389L96.938,156.278C97.242,156.5 97.266,156.833 97.008,157Z" style="fill:rgb(235,235,235);fill-rule:nonzero;"/>
                                    <path d="M102.961,152.917L98.555,155.944C98.273,156.139 97.805,156.111 97.5,155.889L93.281,153C92.977,152.778 92.93,152.472 93.211,152.278L97.617,149.25C97.875,149.056 98.367,149.083 98.672,149.306L102.891,152.194C103.219,152.417 103.242,152.722 102.961,152.917Z" style="fill:rgb(235,235,235);fill-rule:nonzero;"/>
                                    <path d="M108.938,148.833L104.531,151.861C104.25,152.056 103.781,152.028 103.477,151.806L99.258,148.917C98.953,148.694 98.906,148.389 99.188,148.194L103.594,145.167C103.852,144.972 104.344,145 104.648,145.222L108.867,148.111C109.172,148.333 109.219,148.639 108.938,148.833Z" style="fill:rgb(235,235,235);fill-rule:nonzero;"/>
                                    <path d="M114.914,144.75L110.508,147.778C110.227,147.972 109.758,147.944 109.453,147.722L105.234,144.833C104.93,144.611 104.883,144.306 105.164,144.111L109.57,141.083C109.852,140.889 110.32,140.917 110.625,141.139L114.844,144.028C115.148,144.222 115.195,144.556 114.914,144.75Z" style="fill:rgb(235,235,235);fill-rule:nonzero;"/>
                                    <path d="M120.891,140.667L116.484,143.667C116.203,143.861 115.734,143.833 115.43,143.611L111.211,140.722C110.906,140.5 110.859,140.194 111.141,140L115.547,136.972C115.828,136.778 116.297,136.806 116.602,137.028L120.82,139.917C121.125,140.139 121.172,140.472 120.891,140.667Z" style="fill:rgb(235,235,235);fill-rule:nonzero;"/>
                                    <path d="M126.867,136.556L122.461,139.583C122.18,139.778 121.711,139.75 121.406,139.528L117.164,136.639C116.859,136.417 116.813,136.111 117.094,135.917L121.5,132.889C121.758,132.694 122.25,132.722 122.555,132.944L126.773,135.833C127.102,136.056 127.125,136.389 126.867,136.556Z" style="fill:rgb(235,235,235);fill-rule:nonzero;"/>
                                    <path d="M132.844,132.472L128.438,135.5C128.18,135.694 127.687,135.667 127.383,135.444L123.164,132.556C122.859,132.333 122.813,132.028 123.094,131.833L127.5,128.806C127.758,128.611 128.25,128.639 128.555,128.861L132.773,131.75C133.078,131.972 133.102,132.306 132.844,132.472Z" style="fill:rgb(235,235,235);fill-rule:nonzero;"/>
                                    <path d="M138.82,128.389L134.414,131.417C134.133,131.611 133.664,131.583 133.359,131.361L129.141,128.472C128.836,128.25 128.789,127.944 129.07,127.75L133.477,124.722C133.734,124.528 134.227,124.556 134.531,124.778L138.75,127.667C139.055,127.889 139.078,128.194 138.82,128.389Z" style="fill:rgb(235,235,235);fill-rule:nonzero;"/>
                                    <path d="M144.797,124.306L140.391,127.333C140.109,127.528 139.641,127.5 139.336,127.278L135.117,124.389C134.813,124.167 134.766,123.861 135.047,123.667L139.453,120.639C139.734,120.444 140.203,120.472 140.508,120.694L144.75,123.583C145.031,123.806 145.055,124.111 144.797,124.306Z" style="fill:rgb(235,235,235);fill-rule:nonzero;"/>
                                    <path d="M150.75,120.222L146.344,123.25C146.063,123.444 145.594,123.417 145.289,123.194L141.07,120.306C140.766,120.083 140.719,119.778 141,119.583L145.406,116.556C145.688,116.361 146.156,116.389 146.461,116.611L150.68,119.5C150.984,119.722 151.031,120.028 150.75,120.222Z" style="fill:rgb(235,235,235);fill-rule:nonzero;"/>
                                    <path d="M156.727,116.139L152.32,119.167C152.039,119.361 151.57,119.333 151.266,119.111L147.047,116.222C146.742,116 146.695,115.694 146.977,115.5L151.383,112.472C151.664,112.278 152.133,112.306 152.438,112.528L156.656,115.417C156.961,115.611 157.008,115.944 156.727,116.139Z" style="fill:rgb(235,235,235);fill-rule:nonzero;"/>
                                    <path d="M165.398,110.194L158.273,115.056C157.992,115.25 157.523,115.222 157.219,115L153,112.111C152.695,111.889 152.648,111.583 152.93,111.389L160.055,106.528C160.313,106.333 160.805,106.361 161.109,106.583L165.328,109.472C165.633,109.694 165.68,110 165.398,110.194Z" style="fill:rgb(235,235,235);fill-rule:nonzero;"/>
                                </g>
                                <g>
                                    <path d="M161.578,113.611L165.984,110.583C166.242,110.389 166.734,110.417 167.039,110.639L171.258,113.528C171.562,113.75 171.609,114.056 171.328,114.25L166.922,117.278C166.664,117.472 166.172,117.444 165.867,117.222L161.625,114.333C161.344,114.111 161.297,113.806 161.578,113.611Z" style="fill:rgb(235,235,235);fill-rule:nonzero;"/>
                                    <path d="M155.602,117.694L160.008,114.667C160.266,114.472 160.758,114.5 161.062,114.722L165.281,117.611C165.586,117.833 165.633,118.139 165.352,118.333L160.945,121.361C160.687,121.556 160.195,121.528 159.891,121.306L155.672,118.417C155.367,118.194 155.32,117.889 155.602,117.694Z" style="fill:rgb(235,235,235);fill-rule:nonzero;"/>
                                    <path d="M149.625,121.778L154.031,118.75C154.313,118.556 154.781,118.583 155.086,118.806L159.328,121.694C159.633,121.917 159.68,122.222 159.398,122.417L154.992,125.444C154.711,125.639 154.242,125.611 153.938,125.389L149.719,122.5C149.391,122.306 149.344,121.972 149.625,121.778Z" style="fill:rgb(235,235,235);fill-rule:nonzero;"/>
                                    <path d="M143.648,125.889L148.055,122.861C148.313,122.667 148.805,122.694 149.109,122.917L153.328,125.806C153.633,126.028 153.68,126.333 153.398,126.528L148.992,129.556C148.711,129.75 148.242,129.722 147.937,129.5L143.695,126.611C143.414,126.389 143.367,126.056 143.648,125.889Z" style="fill:rgb(235,235,235);fill-rule:nonzero;"/>
                                    <path d="M137.672,129.972L142.078,126.944C142.359,126.75 142.828,126.778 143.133,127L147.375,129.889C147.68,130.111 147.727,130.417 147.445,130.611L143.039,133.639C142.758,133.833 142.289,133.806 141.984,133.583L137.766,130.694C137.438,130.472 137.414,130.139 137.672,129.972Z" style="fill:rgb(235,235,235);fill-rule:nonzero;"/>
                                    <path d="M131.695,134.056L136.102,131.028C136.383,130.833 136.852,130.861 137.156,131.083L141.375,133.972C141.68,134.194 141.727,134.5 141.445,134.694L137.039,137.722C136.758,137.917 136.289,137.889 135.984,137.667L131.742,134.778C131.461,134.556 131.438,134.222 131.695,134.056Z" style="fill:rgb(235,235,235);fill-rule:nonzero;"/>
                                    <path d="M125.719,138.139L130.125,135.111C130.406,134.917 130.875,134.944 131.18,135.167L135.398,138.056C135.703,138.278 135.75,138.583 135.469,138.778L131.062,141.806C130.781,142 130.312,141.972 130.008,141.75L125.789,138.861C125.484,138.639 125.461,138.333 125.719,138.139Z" style="fill:rgb(235,235,235);fill-rule:nonzero;"/>
                                    <path d="M119.742,142.222L124.148,139.194C124.43,139 124.898,139.028 125.203,139.25L129.422,142.139C129.727,142.361 129.773,142.667 129.492,142.861L125.086,145.889C124.805,146.083 124.336,146.056 124.031,145.833L119.812,142.944C119.508,142.722 119.484,142.417 119.742,142.222Z" style="fill:rgb(235,235,235);fill-rule:nonzero;"/>
                                    <path d="M113.789,146.306L118.195,143.278C118.477,143.083 118.945,143.111 119.25,143.333L123.469,146.222C123.773,146.444 123.82,146.75 123.539,146.944L119.133,149.972C118.875,150.167 118.383,150.139 118.078,149.917L113.859,147.028C113.555,146.806 113.508,146.5 113.789,146.306Z" style="fill:rgb(235,235,235);fill-rule:nonzero;"/>
                                    <path d="M107.813,150.389L112.219,147.361C112.5,147.167 112.969,147.194 113.273,147.417L117.516,150.306C117.82,150.528 117.867,150.833 117.586,151.028L113.18,154.056C112.922,154.25 112.43,154.222 112.125,154L107.906,151.111C107.578,150.917 107.531,150.583 107.813,150.389Z" style="fill:rgb(235,235,235);fill-rule:nonzero;"/>
                                    <path d="M101.836,154.5L106.242,151.472C106.523,151.278 106.992,151.306 107.297,151.528L111.516,154.417C111.82,154.639 111.867,154.944 111.586,155.139L107.18,158.167C106.898,158.361 106.43,158.333 106.125,158.111L101.883,155.222C101.602,155 101.555,154.667 101.836,154.5Z" style="fill:rgb(235,235,235);fill-rule:nonzero;"/>
                                    <path d="M95.859,158.583L100.266,155.556C100.547,155.361 101.016,155.389 101.32,155.611L105.539,158.5C105.844,158.722 105.891,159.028 105.609,159.222L101.203,162.25C100.922,162.444 100.453,162.417 100.148,162.194L95.93,159.306C95.625,159.083 95.578,158.75 95.859,158.583Z" style="fill:rgb(235,235,235);fill-rule:nonzero;"/>
                                    <path d="M89.883,162.667L94.289,159.639C94.57,159.444 95.039,159.472 95.344,159.694L99.563,162.583C99.867,162.806 99.914,163.111 99.633,163.306L95.227,166.333C94.945,166.528 94.477,166.5 94.172,166.278L89.953,163.389C89.648,163.167 89.625,162.833 89.883,162.667Z" style="fill:rgb(235,235,235);fill-rule:nonzero;"/>
                                    <path d="M81.211,168.583L88.336,163.722C88.594,163.528 89.086,163.556 89.391,163.778L93.609,166.667C93.914,166.889 93.961,167.194 93.68,167.389L86.555,172.25C86.273,172.444 85.805,172.417 85.5,172.194L81.258,169.306C80.977,169.111 80.953,168.778 81.211,168.583Z" style="fill:rgb(235,235,235);fill-rule:nonzero;"/>
                                </g>
                                <g>
                                    <path d="M163.195,120.611L171.914,114.639C172.195,114.444 172.664,114.472 172.969,114.694L177.188,117.583C177.492,117.806 177.539,118.111 177.258,118.306L168.539,124.278C168.258,124.472 167.789,124.444 167.484,124.222L163.242,121.333C162.961,121.139 162.914,120.806 163.195,120.611Z" style="fill:rgb(235,235,235);fill-rule:nonzero;"/>
                                    <path d="M87.211,172.639L95.93,166.667C96.211,166.472 96.68,166.5 96.984,166.722L101.203,169.611C101.508,169.833 101.555,170.139 101.273,170.333L92.555,176.306C92.273,176.5 91.805,176.472 91.5,176.25L87.281,173.361C86.953,173.139 86.93,172.806 87.211,172.639Z" style="fill:rgb(235,235,235);fill-rule:nonzero;"/>
                                    <path d="M157.219,124.722L161.625,121.694C161.906,121.5 162.375,121.528 162.68,121.75L166.898,124.639C167.203,124.861 167.25,125.167 166.969,125.361L162.562,128.389C162.305,128.583 161.812,128.556 161.508,128.333L157.266,125.444C156.984,125.222 156.938,124.889 157.219,124.722Z" style="fill:rgb(235,235,235);fill-rule:nonzero;"/>
                                    <path d="M151.242,128.806L155.648,125.778C155.93,125.583 156.398,125.611 156.703,125.833L160.945,128.722C161.25,128.944 161.297,129.25 161.016,129.444L156.609,132.472C156.328,132.667 155.859,132.639 155.555,132.417L151.336,129.528C151.008,129.306 150.984,128.972 151.242,128.806Z" style="fill:rgb(235,235,235);fill-rule:nonzero;"/>
                                    <path d="M145.266,132.889L149.672,129.861C149.953,129.667 150.422,129.694 150.727,129.917L154.945,132.806C155.25,133.028 155.297,133.333 155.016,133.528L150.609,136.556C150.352,136.75 149.859,136.722 149.555,136.5L145.336,133.611C145.031,133.389 145.008,133.083 145.266,132.889Z" style="fill:rgb(235,235,235);fill-rule:nonzero;"/>
                                    <path d="M139.289,136.972L143.695,133.944C143.953,133.75 144.445,133.778 144.75,134L148.992,136.889C149.297,137.111 149.344,137.417 149.062,137.611L144.656,140.639C144.398,140.833 143.906,140.806 143.602,140.583L139.383,137.694C139.055,137.472 139.031,137.167 139.289,136.972Z" style="fill:rgb(235,235,235);fill-rule:nonzero;"/>
                                    <path d="M133.336,141.056L137.742,138.028C138.023,137.833 138.492,137.861 138.797,138.083L143.039,140.972C143.344,141.194 143.391,141.5 143.109,141.694L138.68,144.722C138.398,144.917 137.93,144.889 137.625,144.667L133.383,141.778C133.078,141.583 133.055,141.25 133.336,141.056Z" style="fill:rgb(235,235,235);fill-rule:nonzero;"/>
                                    <path d="M127.359,145.139L131.766,142.111C132.047,141.917 132.516,141.944 132.82,142.167L137.039,145.056C137.344,145.278 137.391,145.583 137.109,145.778L132.703,148.806C132.422,149 131.953,148.972 131.648,148.75L127.43,145.861C127.125,145.667 127.078,145.333 127.359,145.139Z" style="fill:rgb(235,235,235);fill-rule:nonzero;"/>
                                    <path d="M121.383,149.25L125.789,146.222C126.047,146.028 126.539,146.056 126.844,146.278L131.062,149.167C131.367,149.389 131.414,149.694 131.133,149.889L126.727,152.917C126.445,153.111 125.977,153.083 125.672,152.861L121.453,149.972C121.148,149.75 121.102,149.417 121.383,149.25Z" style="fill:rgb(235,235,235);fill-rule:nonzero;"/>
                                    <path d="M115.406,153.333L119.813,150.306C120.094,150.111 120.563,150.139 120.867,150.361L125.086,153.25C125.391,153.472 125.438,153.778 125.156,153.972L120.75,157C120.469,157.194 120,157.167 119.695,156.944L115.477,154.056C115.172,153.833 115.125,153.5 115.406,153.333Z" style="fill:rgb(235,235,235);fill-rule:nonzero;"/>
                                    <path d="M109.43,157.417L113.836,154.389C114.094,154.194 114.586,154.222 114.891,154.444L119.109,157.333C119.414,157.556 119.461,157.861 119.18,158.056L114.773,161.083C114.492,161.278 114.023,161.25 113.719,161.028L109.5,158.139C109.195,157.917 109.172,157.583 109.43,157.417Z" style="fill:rgb(235,235,235);fill-rule:nonzero;"/>
                                    <path d="M103.453,161.5L107.859,158.472C108.141,158.278 108.609,158.306 108.914,158.528L113.156,161.417C113.461,161.639 113.508,161.944 113.227,162.139L108.82,165.167C108.539,165.361 108.07,165.333 107.766,165.111L103.547,162.222C103.219,162 103.195,161.694 103.453,161.5Z" style="fill:rgb(235,235,235);fill-rule:nonzero;"/>
                                    <path d="M97.477,165.583L101.883,162.556C102.164,162.361 102.633,162.389 102.938,162.611L107.156,165.5C107.461,165.722 107.508,166.028 107.227,166.222L102.82,169.25C102.539,169.444 102.07,169.417 101.766,169.194L97.547,166.306C97.242,166.083 97.219,165.778 97.477,165.583Z" style="fill:rgb(235,235,235);fill-rule:nonzero;"/>
                                </g>
                                <g>
                                    <path d="M166.172,126.722L177.867,118.722C178.148,118.528 178.617,118.556 178.922,118.778L183.141,121.667C183.445,121.889 183.492,122.194 183.211,122.389L171.516,130.389C171.258,130.583 170.766,130.556 170.461,130.333L166.242,127.444C165.938,127.222 165.891,126.889 166.172,126.722Z" style="fill:rgb(235,235,235);fill-rule:nonzero;"/>
                                    <path d="M160.195,130.806L164.602,127.778C164.883,127.583 165.352,127.611 165.656,127.833L169.875,130.722C170.18,130.944 170.227,131.25 169.945,131.444L165.539,134.472C165.281,134.667 164.789,134.639 164.484,134.417L160.266,131.528C159.961,131.306 159.914,131 160.195,130.806Z" style="fill:rgb(235,235,235);fill-rule:nonzero;"/>
                                    <path d="M154.219,134.889L158.625,131.861C158.906,131.667 159.375,131.694 159.68,131.917L163.898,134.806C164.203,135.028 164.25,135.333 163.969,135.528L159.563,138.556C159.305,138.75 158.812,138.722 158.508,138.5L154.289,135.611C153.984,135.389 153.938,135.083 154.219,134.889Z" style="fill:rgb(235,235,235);fill-rule:nonzero;"/>
                                    <path d="M148.242,138.972L152.648,135.944C152.906,135.75 153.398,135.778 153.703,136L157.922,138.889C158.227,139.111 158.273,139.417 157.992,139.611L153.586,142.639C153.305,142.833 152.836,142.806 152.531,142.583L148.313,139.694C148.008,139.472 147.984,139.167 148.242,138.972Z" style="fill:rgb(235,235,235);fill-rule:nonzero;"/>
                                    <path d="M142.266,143.056L146.672,140.028C146.953,139.833 147.422,139.861 147.727,140.083L151.945,142.972C152.25,143.194 152.297,143.5 152.016,143.694L147.609,146.722C147.328,146.917 146.859,146.889 146.555,146.667L142.336,143.778C142.031,143.583 142.008,143.25 142.266,143.056Z" style="fill:rgb(235,235,235);fill-rule:nonzero;"/>
                                    <path d="M136.289,147.167L140.695,144.139C140.953,143.944 141.445,143.972 141.75,144.194L145.969,147.083C146.273,147.306 146.32,147.611 146.039,147.806L141.656,150.833C141.398,151.028 140.906,151 140.602,150.778L136.383,147.889C136.055,147.667 136.031,147.333 136.289,147.167Z" style="fill:rgb(235,235,235);fill-rule:nonzero;"/>
                                    <path d="M130.313,151.25L134.719,148.222C134.977,148.028 135.469,148.056 135.773,148.278L139.992,151.167C140.297,151.389 140.344,151.694 140.062,151.889L135.656,154.917C135.375,155.111 134.906,155.083 134.602,154.861L130.383,151.972C130.078,151.75 130.055,151.417 130.313,151.25Z" style="fill:rgb(235,235,235);fill-rule:nonzero;"/>
                                    <path d="M124.359,155.333L128.766,152.306C129.047,152.111 129.516,152.139 129.82,152.361L134.039,155.25C134.344,155.472 134.391,155.778 134.109,155.972L129.703,159C129.422,159.194 128.953,159.167 128.648,158.944L124.43,156.056C124.102,155.833 124.078,155.5 124.359,155.333Z" style="fill:rgb(235,235,235);fill-rule:nonzero;"/>
                                    <path d="M118.383,159.417L122.789,156.389C123.07,156.194 123.539,156.222 123.844,156.444L128.063,159.333C128.367,159.556 128.414,159.861 128.133,160.056L123.727,163.083C123.445,163.278 122.977,163.25 122.672,163.028L118.453,160.139C118.148,159.917 118.102,159.611 118.383,159.417Z" style="fill:rgb(235,235,235);fill-rule:nonzero;"/>
                                    <path d="M112.406,163.5L116.813,160.472C117.094,160.278 117.563,160.306 117.867,160.528L122.086,163.417C122.391,163.639 122.438,163.944 122.156,164.139L117.75,167.167C117.469,167.361 117,167.333 116.695,167.111L112.477,164.222C112.172,164 112.125,163.694 112.406,163.5Z" style="fill:rgb(235,235,235);fill-rule:nonzero;"/>
                                    <path d="M106.43,167.583L110.836,164.556C111.117,164.361 111.586,164.389 111.891,164.611L116.109,167.5C116.414,167.722 116.461,168.028 116.18,168.222L111.797,171.25C111.539,171.444 111.047,171.417 110.742,171.194L106.523,168.306C106.195,168.111 106.148,167.778 106.43,167.583Z" style="fill:rgb(235,235,235);fill-rule:nonzero;"/>
                                    <path d="M93.141,176.694L104.883,168.667C105.164,168.472 105.633,168.5 105.938,168.722L110.156,171.611C110.461,171.833 110.508,172.139 110.227,172.333L98.484,180.361C98.203,180.556 97.734,180.528 97.43,180.306L93.187,177.417C92.906,177.194 92.859,176.861 93.141,176.694Z" style="fill:rgb(235,235,235);fill-rule:nonzero;"/>
                                </g>
                                <g>
                                    <path d="M124.313,163.472L152.625,144.111C152.906,143.917 153.375,143.944 153.68,144.167L157.898,147.056C158.203,147.278 158.25,147.583 157.969,147.778L129.656,167.139C129.375,167.333 128.906,167.306 128.602,167.083L124.383,164.194C124.078,163.972 124.031,163.667 124.313,163.472Z" style="fill:rgb(235,235,235);fill-rule:nonzero;"/>
                                    <path d="M161.461,138.056L165.867,135.028C166.125,134.833 166.617,134.861 166.922,135.083L171.141,137.972C171.445,138.194 171.492,138.5 171.211,138.694L166.805,141.722C166.523,141.917 166.055,141.889 165.75,141.667L161.531,138.778C161.227,138.556 161.18,138.25 161.461,138.056Z" style="fill:rgb(235,235,235);fill-rule:nonzero;"/>
                                    <path d="M154.172,143.028L159.891,139.111C160.172,138.917 160.641,138.944 160.945,139.167L165.164,142.056C165.469,142.278 165.516,142.583 165.234,142.778L159.516,146.694C159.258,146.889 158.766,146.861 158.461,146.639L154.242,143.75C153.938,143.556 153.914,143.222 154.172,143.028Z" style="fill:rgb(235,235,235);fill-rule:nonzero;"/>
                                    <path d="M115.477,169.528L111.07,172.556C110.812,172.75 110.836,173.056 111.141,173.278L115.359,176.167C115.664,176.389 116.133,176.417 116.414,176.222L120.82,173.194C121.078,173 121.055,172.694 120.75,172.472L116.508,169.583C116.227,169.361 115.734,169.333 115.477,169.528Z" style="fill:rgb(235,235,235);fill-rule:nonzero;"/>
                                    <path d="M122.742,164.556L117.023,168.472C116.766,168.667 116.789,168.972 117.094,169.194L121.313,172.083C121.617,172.306 122.086,172.333 122.367,172.139L128.086,168.222C128.367,168.028 128.32,167.722 128.016,167.5L123.773,164.611C123.492,164.389 123.023,164.361 122.742,164.556Z" style="fill:rgb(235,235,235);fill-rule:nonzero;"/>
                                    <path d="M179.367,125.806L183.773,122.778C184.055,122.583 184.523,122.611 184.828,122.833L189.047,125.722C189.352,125.944 189.398,126.25 189.117,126.444L184.711,129.472C184.43,129.667 183.961,129.639 183.656,129.417L179.437,126.528C179.133,126.306 179.109,125.972 179.367,125.806Z" style="fill:rgb(235,235,235);fill-rule:nonzero;"/>
                                    <path d="M173.414,129.889L177.82,126.861C178.078,126.667 178.57,126.694 178.875,126.917L183.094,129.806C183.398,130.028 183.445,130.333 183.164,130.528L178.758,133.556C178.5,133.75 178.008,133.722 177.703,133.5L173.461,130.611C173.156,130.389 173.133,130.083 173.414,129.889Z" style="fill:rgb(235,235,235);fill-rule:nonzero;"/>
                                    <path d="M167.438,133.972L171.844,130.944C172.102,130.75 172.594,130.778 172.898,131L177.141,133.889C177.445,134.111 177.492,134.417 177.211,134.611L172.805,137.639C172.523,137.833 172.055,137.806 171.75,137.583L167.531,134.694C167.203,134.472 167.156,134.167 167.438,133.972Z" style="fill:rgb(235,235,235);fill-rule:nonzero;"/>
                                    <path d="M99.07,180.75L109.5,173.611C109.781,173.417 110.25,173.444 110.555,173.667L114.773,176.556C115.078,176.778 115.125,177.083 114.844,177.278L104.414,184.417C104.156,184.611 103.664,184.583 103.359,184.361L99.141,181.472C98.836,181.25 98.813,180.944 99.07,180.75Z" style="fill:rgb(235,235,235);fill-rule:nonzero;"/>
                                </g>
                                <g>
                                    <path d="M79.125,161.111L74.719,164.139C74.438,164.333 73.969,164.306 73.664,164.083L71.555,162.639C71.25,162.417 71.203,162.111 71.484,161.917L75.891,158.889C76.172,158.694 76.641,158.722 76.945,158.944L79.055,160.389C79.359,160.611 79.383,160.944 79.125,161.111Z" style="fill:rgb(235,235,235);fill-rule:nonzero;"/>
                                    <path d="M85.078,157.028L80.672,160.056C80.414,160.25 79.922,160.222 79.617,160L77.508,158.556C77.203,158.333 77.156,158.028 77.438,157.833L81.844,154.806C82.125,154.611 82.594,154.639 82.898,154.861L85.008,156.306C85.336,156.528 85.359,156.833 85.078,157.028Z" style="fill:rgb(235,235,235);fill-rule:nonzero;"/>
                                    <path d="M91.055,152.944L86.648,155.972C86.367,156.167 85.898,156.139 85.594,155.917L83.484,154.472C83.18,154.25 83.133,153.944 83.414,153.75L87.82,150.722C88.102,150.528 88.57,150.556 88.875,150.778L90.984,152.222C91.289,152.444 91.336,152.75 91.055,152.944Z" style="fill:rgb(235,235,235);fill-rule:nonzero;"/>
                                    <path d="M97.031,148.861L92.625,151.889C92.367,152.083 91.875,152.056 91.57,151.833L89.461,150.389C89.156,150.167 89.109,149.861 89.391,149.667L93.797,146.639C94.078,146.444 94.547,146.472 94.852,146.694L96.961,148.139C97.266,148.361 97.313,148.667 97.031,148.861Z" style="fill:rgb(235,235,235);fill-rule:nonzero;"/>
                                    <path d="M103.008,144.778L98.602,147.778C98.32,147.972 97.852,147.944 97.547,147.722L95.438,146.278C95.133,146.056 95.086,145.75 95.367,145.556L99.773,142.528C100.031,142.333 100.523,142.361 100.828,142.583L102.938,144.028C103.242,144.25 103.289,144.583 103.008,144.778Z" style="fill:rgb(235,235,235);fill-rule:nonzero;"/>
                                    <path d="M108.984,140.694L104.578,143.722C104.297,143.917 103.828,143.889 103.523,143.667L101.414,142.222C101.109,142 101.063,141.694 101.344,141.5L105.75,138.472C106.031,138.278 106.5,138.306 106.805,138.528L108.914,139.972C109.219,140.167 109.242,140.5 108.984,140.694Z" style="fill:rgb(235,235,235);fill-rule:nonzero;"/>
                                    <path d="M114.961,136.583L110.555,139.611C110.273,139.806 109.805,139.778 109.5,139.556L107.391,138.111C107.086,137.889 107.039,137.583 107.32,137.389L111.727,134.361C111.984,134.167 112.477,134.194 112.781,134.417L114.891,135.861C115.195,136.083 115.219,136.417 114.961,136.583Z" style="fill:rgb(235,235,235);fill-rule:nonzero;"/>
                                    <path d="M120.938,132.5L116.531,135.528C116.25,135.722 115.781,135.694 115.477,135.472L113.367,134.028C113.063,133.806 113.016,133.5 113.297,133.306L117.703,130.278C117.984,130.083 118.453,130.111 118.758,130.333L120.867,131.778C121.172,132 121.195,132.333 120.938,132.5Z" style="fill:rgb(235,235,235);fill-rule:nonzero;"/>
                                    <path d="M126.914,128.417L122.508,131.444C122.227,131.639 121.758,131.611 121.453,131.389L119.344,129.944C119.039,129.722 118.992,129.417 119.273,129.222L123.68,126.194C123.961,126 124.43,126.028 124.734,126.25L126.844,127.694C127.148,127.917 127.172,128.222 126.914,128.417Z" style="fill:rgb(235,235,235);fill-rule:nonzero;"/>
                                    <path d="M132.867,124.333L128.461,127.361C128.203,127.556 127.711,127.528 127.406,127.306L125.297,125.861C124.992,125.639 124.945,125.333 125.227,125.139L129.633,122.111C129.914,121.917 130.383,121.944 130.688,122.167L132.797,123.611C133.102,123.833 133.148,124.139 132.867,124.333Z" style="fill:rgb(235,235,235);fill-rule:nonzero;"/>
                                    <path d="M138.844,120.25L134.438,123.278C134.156,123.472 133.688,123.444 133.383,123.222L131.273,121.778C130.969,121.556 130.922,121.25 131.203,121.056L135.609,118.028C135.891,117.833 136.359,117.861 136.664,118.083L138.773,119.528C139.078,119.75 139.125,120.056 138.844,120.25Z" style="fill:rgb(235,235,235);fill-rule:nonzero;"/>
                                    <path d="M144.82,116.167L140.414,119.167C140.156,119.361 139.664,119.333 139.359,119.111L137.25,117.667C136.945,117.444 136.898,117.139 137.18,116.944L141.586,113.917C141.867,113.722 142.336,113.75 142.641,113.972L144.75,115.417C145.055,115.639 145.102,115.972 144.82,116.167Z" style="fill:rgb(235,235,235);fill-rule:nonzero;"/>
                                    <path d="M150.797,112.056L146.391,115.083C146.133,115.278 145.641,115.25 145.336,115.028L143.227,113.583C142.922,113.361 142.875,113.056 143.156,112.861L147.563,109.833C147.844,109.639 148.313,109.667 148.617,109.889L150.727,111.333C151.031,111.556 151.078,111.889 150.797,112.056Z" style="fill:rgb(235,235,235);fill-rule:nonzero;"/>
                                    <path d="M159.469,106.139L152.344,111C152.063,111.194 151.594,111.167 151.289,110.944L149.18,109.5C148.875,109.278 148.828,108.972 149.109,108.778L156.234,103.917C156.516,103.722 156.984,103.75 157.289,103.972L159.398,105.417C159.703,105.639 159.75,105.944 159.469,106.139Z" style="fill:rgb(235,235,235);fill-rule:nonzero;"/>
                                </g>
                            </g>
                            <g>
                                <g>
                                    <path d="M85.055,164.833L80.625,167.861C80.344,168.056 79.875,168.028 79.57,167.806L75.352,164.917C75.047,164.694 75,164.389 75.281,164.194L79.688,161.167C79.945,160.972 80.438,161 80.742,161.222L84.961,164.111C85.289,164.306 85.313,164.639 85.055,164.833Z" style="fill:rgb(235,235,235);fill-rule:nonzero;"/>
                                    <path d="M91.031,160.75L86.625,163.778C86.344,163.972 85.875,163.944 85.57,163.722L81.352,160.833C81.047,160.611 81,160.306 81.281,160.111L85.687,157.083C85.969,156.889 86.437,156.917 86.742,157.139L90.961,160.028C91.266,160.222 91.289,160.556 91.031,160.75Z" style="fill:rgb(235,235,235);fill-rule:nonzero;"/>
                                    <path d="M97.008,156.639L92.578,159.667C92.297,159.861 91.828,159.833 91.523,159.611L87.305,156.722C87,156.5 86.953,156.194 87.234,156L91.641,152.972C91.922,152.778 92.391,152.806 92.695,153.028L96.938,155.917C97.242,156.139 97.266,156.472 97.008,156.639Z" style="fill:rgb(235,235,235);fill-rule:nonzero;"/>
                                    <path d="M102.961,152.556L98.555,155.583C98.273,155.778 97.805,155.75 97.5,155.528L93.281,152.639C92.977,152.417 92.93,152.111 93.211,151.917L97.617,148.889C97.875,148.694 98.367,148.722 98.672,148.944L102.891,151.833C103.219,152.056 103.242,152.389 102.961,152.556Z" style="fill:rgb(235,235,235);fill-rule:nonzero;"/>
                                    <path d="M108.938,148.472L104.531,151.5C104.25,151.694 103.781,151.667 103.477,151.444L99.258,148.556C98.953,148.333 98.906,148.028 99.188,147.833L103.594,144.806C103.852,144.611 104.344,144.639 104.648,144.861L108.867,147.75C109.172,147.972 109.219,148.306 108.938,148.472Z" style="fill:rgb(235,235,235);fill-rule:nonzero;"/>
                                    <path d="M114.914,144.389L110.508,147.417C110.227,147.611 109.758,147.583 109.453,147.361L105.234,144.472C104.93,144.25 104.883,143.944 105.164,143.75L109.57,140.722C109.852,140.528 110.32,140.556 110.625,140.778L114.844,143.667C115.148,143.889 115.195,144.194 114.914,144.389Z" style="fill:rgb(235,235,235);fill-rule:nonzero;"/>
                                    <path d="M120.891,140.306L116.484,143.333C116.203,143.528 115.734,143.5 115.43,143.278L111.211,140.389C110.906,140.167 110.859,139.861 111.141,139.667L115.547,136.639C115.828,136.444 116.297,136.472 116.602,136.694L120.82,139.583C121.125,139.806 121.172,140.111 120.891,140.306Z" style="fill:rgb(235,235,235);fill-rule:nonzero;"/>
                                    <path d="M126.867,136.222L122.461,139.25C122.18,139.444 121.711,139.417 121.406,139.194L117.164,136.306C116.859,136.083 116.813,135.778 117.094,135.583L121.5,132.556C121.758,132.361 122.25,132.389 122.555,132.611L126.773,135.5C127.102,135.694 127.125,136.028 126.867,136.222Z" style="fill:rgb(235,235,235);fill-rule:nonzero;"/>
                                    <path d="M132.844,132.139L128.438,135.167C128.18,135.361 127.687,135.333 127.383,135.111L123.164,132.222C122.859,132 122.813,131.694 123.094,131.5L127.5,128.472C127.758,128.278 128.25,128.306 128.555,128.528L132.773,131.417C133.078,131.611 133.102,131.944 132.844,132.139Z" style="fill:rgb(235,235,235);fill-rule:nonzero;"/>
                                    <path d="M138.82,128.028L134.414,131.056C134.133,131.25 133.664,131.222 133.359,131L129.141,128.111C128.836,127.889 128.789,127.583 129.07,127.389L133.477,124.361C133.734,124.167 134.227,124.194 134.531,124.417L138.75,127.306C139.055,127.528 139.078,127.861 138.82,128.028Z" style="fill:rgb(235,235,235);fill-rule:nonzero;"/>
                                    <path d="M144.797,123.944L140.391,126.972C140.109,127.167 139.641,127.139 139.336,126.917L135.117,124.028C134.813,123.806 134.766,123.5 135.047,123.306L139.453,120.278C139.734,120.083 140.203,120.111 140.508,120.333L144.75,123.222C145.031,123.444 145.055,123.778 144.797,123.944Z" style="fill:rgb(235,235,235);fill-rule:nonzero;"/>
                                    <path d="M150.75,119.861L146.344,122.889C146.063,123.083 145.594,123.056 145.289,122.833L141.07,119.944C140.766,119.722 140.719,119.417 141,119.222L145.406,116.194C145.688,116 146.156,116.028 146.461,116.25L150.68,119.139C150.984,119.361 151.031,119.694 150.75,119.861Z" style="fill:rgb(235,235,235);fill-rule:nonzero;"/>
                                    <path d="M156.727,115.778L152.32,118.806C152.039,119 151.57,118.972 151.266,118.75L147.047,115.861C146.742,115.639 146.695,115.333 146.977,115.139L151.383,112.111C151.664,111.917 152.133,111.944 152.438,112.167L156.656,115.056C156.961,115.278 157.008,115.583 156.727,115.778Z" style="fill:rgb(235,235,235);fill-rule:nonzero;"/>
                                    <path d="M165.398,109.833L158.297,114.722C158.016,114.917 157.547,114.889 157.242,114.667L153.023,111.778C152.719,111.556 152.672,111.25 152.953,111.056L160.078,106.194C160.336,106 160.828,106.028 161.133,106.25L165.352,109.139C165.633,109.333 165.68,109.667 165.398,109.833Z" style="fill:rgb(235,235,235);fill-rule:nonzero;"/>
                                </g>
                                <g>
                                    <path d="M161.578,113.25L165.984,110.222C166.242,110.028 166.734,110.056 167.039,110.278L171.258,113.167C171.562,113.389 171.609,113.694 171.328,113.889L166.922,116.917C166.664,117.111 166.172,117.083 165.867,116.861L161.625,113.972C161.344,113.778 161.297,113.444 161.578,113.25Z" style="fill:rgb(235,235,235);fill-rule:nonzero;"/>
                                    <path d="M155.602,117.333L160.008,114.306C160.266,114.111 160.758,114.139 161.062,114.361L165.281,117.25C165.586,117.472 165.633,117.778 165.352,117.972L160.945,121C160.687,121.194 160.195,121.167 159.891,120.944L155.672,118.056C155.367,117.861 155.32,117.528 155.602,117.333Z" style="fill:rgb(235,235,235);fill-rule:nonzero;"/>
                                    <path d="M149.625,121.444L154.031,118.417C154.313,118.222 154.781,118.25 155.086,118.472L159.328,121.361C159.633,121.583 159.68,121.889 159.398,122.083L154.992,125.111C154.711,125.306 154.242,125.278 153.938,125.056L149.719,122.167C149.391,121.944 149.344,121.611 149.625,121.444Z" style="fill:rgb(235,235,235);fill-rule:nonzero;"/>
                                    <path d="M143.648,125.528L148.055,122.5C148.313,122.306 148.805,122.333 149.109,122.556L153.328,125.444C153.633,125.667 153.68,125.972 153.398,126.167L148.992,129.194C148.711,129.389 148.242,129.361 147.937,129.139L143.695,126.25C143.414,126.028 143.367,125.694 143.648,125.528Z" style="fill:rgb(235,235,235);fill-rule:nonzero;"/>
                                    <path d="M137.672,129.611L142.078,126.583C142.359,126.389 142.828,126.417 143.133,126.639L147.375,129.528C147.68,129.75 147.727,130.056 147.445,130.25L143.039,133.278C142.758,133.472 142.289,133.444 141.984,133.222L137.766,130.333C137.438,130.111 137.414,129.806 137.672,129.611Z" style="fill:rgb(235,235,235);fill-rule:nonzero;"/>
                                    <path d="M131.695,133.694L136.102,130.667C136.383,130.472 136.852,130.5 137.156,130.722L141.375,133.611C141.68,133.833 141.727,134.139 141.445,134.333L137.039,137.361C136.758,137.556 136.289,137.528 135.984,137.306L131.742,134.417C131.461,134.194 131.438,133.889 131.695,133.694Z" style="fill:rgb(235,235,235);fill-rule:nonzero;"/>
                                    <path d="M125.719,137.778L130.125,134.75C130.406,134.556 130.875,134.583 131.18,134.806L135.398,137.694C135.703,137.917 135.75,138.222 135.469,138.417L131.062,141.444C130.781,141.639 130.312,141.611 130.008,141.389L125.789,138.5C125.484,138.278 125.461,137.972 125.719,137.778Z" style="fill:rgb(235,235,235);fill-rule:nonzero;"/>
                                    <path d="M119.742,141.861L124.148,138.833C124.43,138.639 124.898,138.667 125.203,138.889L129.422,141.778C129.727,142 129.773,142.306 129.492,142.5L125.086,145.528C124.805,145.722 124.336,145.694 124.031,145.472L119.812,142.583C119.508,142.389 119.484,142.056 119.742,141.861Z" style="fill:rgb(235,235,235);fill-rule:nonzero;"/>
                                    <path d="M113.789,145.944L118.195,142.917C118.477,142.722 118.945,142.75 119.25,142.972L123.469,145.861C123.773,146.083 123.82,146.389 123.539,146.583L119.133,149.611C118.875,149.806 118.383,149.778 118.078,149.556L113.859,146.667C113.555,146.472 113.508,146.139 113.789,145.944Z" style="fill:rgb(235,235,235);fill-rule:nonzero;"/>
                                    <path d="M107.813,150.056L112.219,147.028C112.5,146.833 112.969,146.861 113.273,147.083L117.516,149.972C117.82,150.194 117.867,150.5 117.586,150.694L113.18,153.722C112.922,153.917 112.43,153.889 112.125,153.667L107.906,150.778C107.578,150.556 107.531,150.222 107.813,150.056Z" style="fill:rgb(235,235,235);fill-rule:nonzero;"/>
                                    <path d="M101.836,154.139L106.242,151.111C106.523,150.917 106.992,150.944 107.297,151.167L111.516,154.056C111.82,154.278 111.867,154.583 111.586,154.778L107.18,157.806C106.898,158 106.43,157.972 106.125,157.75L101.883,154.861C101.602,154.639 101.555,154.306 101.836,154.139Z" style="fill:rgb(235,235,235);fill-rule:nonzero;"/>
                                    <path d="M95.859,158.222L100.266,155.194C100.547,155 101.016,155.028 101.32,155.25L105.539,158.139C105.844,158.361 105.891,158.667 105.609,158.861L101.203,161.889C100.922,162.083 100.453,162.056 100.148,161.833L95.93,158.944C95.625,158.722 95.578,158.417 95.859,158.222Z" style="fill:rgb(235,235,235);fill-rule:nonzero;"/>
                                    <path d="M89.883,162.306L94.289,159.278C94.57,159.083 95.039,159.111 95.344,159.333L99.563,162.222C99.867,162.444 99.914,162.75 99.633,162.944L95.227,165.972C94.945,166.167 94.477,166.139 94.172,165.917L89.953,163.028C89.648,162.806 89.625,162.5 89.883,162.306Z" style="fill:rgb(235,235,235);fill-rule:nonzero;"/>
                                    <path d="M81.211,168.25L88.336,163.389C88.594,163.194 89.086,163.222 89.391,163.444L93.609,166.333C93.914,166.556 93.961,166.861 93.68,167.056L86.555,171.917C86.273,172.111 85.805,172.083 85.5,171.861L81.258,168.972C80.977,168.75 80.953,168.417 81.211,168.25Z" style="fill:rgb(235,235,235);fill-rule:nonzero;"/>
                                </g>
                                <g>
                                    <path d="M163.195,120.278L171.914,114.306C172.195,114.111 172.664,114.139 172.969,114.361L177.188,117.25C177.492,117.472 177.539,117.778 177.258,117.972L168.539,123.944C168.258,124.139 167.789,124.111 167.484,123.889L163.242,121C162.961,120.778 162.914,120.444 163.195,120.278Z" style="fill:rgb(235,235,235);fill-rule:nonzero;"/>
                                    <path d="M87.211,172.278L95.93,166.306C96.211,166.111 96.68,166.139 96.984,166.361L101.203,169.25C101.508,169.472 101.555,169.778 101.273,169.972L92.555,175.944C92.273,176.139 91.805,176.111 91.5,175.889L87.281,173C86.953,172.778 86.93,172.444 87.211,172.278Z" style="fill:rgb(235,235,235);fill-rule:nonzero;"/>
                                    <path d="M157.219,124.361L161.625,121.333C161.906,121.139 162.375,121.167 162.68,121.389L166.898,124.278C167.203,124.5 167.25,124.806 166.969,125L162.562,128.028C162.305,128.222 161.812,128.194 161.508,127.972L157.266,125.083C156.984,124.861 156.938,124.556 157.219,124.361Z" style="fill:rgb(235,235,235);fill-rule:nonzero;"/>
                                    <path d="M151.242,128.444L155.648,125.417C155.93,125.222 156.398,125.25 156.703,125.472L160.945,128.361C161.25,128.583 161.297,128.889 161.016,129.083L156.609,132.111C156.328,132.306 155.859,132.278 155.555,132.056L151.336,129.167C151.008,128.944 150.984,128.639 151.242,128.444Z" style="fill:rgb(235,235,235);fill-rule:nonzero;"/>
                                    <path d="M145.266,132.528L149.672,129.5C149.953,129.306 150.422,129.333 150.727,129.556L154.945,132.444C155.25,132.667 155.297,132.972 155.016,133.167L150.609,136.194C150.352,136.389 149.859,136.361 149.555,136.139L145.336,133.25C145.031,133.028 145.008,132.722 145.266,132.528Z" style="fill:rgb(235,235,235);fill-rule:nonzero;"/>
                                    <path d="M139.289,136.611L143.695,133.583C143.953,133.389 144.445,133.417 144.75,133.639L148.992,136.528C149.297,136.75 149.344,137.056 149.062,137.25L144.656,140.278C144.398,140.472 143.906,140.444 143.602,140.222L139.383,137.333C139.055,137.139 139.031,136.806 139.289,136.611Z" style="fill:rgb(235,235,235);fill-rule:nonzero;"/>
                                    <path d="M133.336,140.722L137.742,137.694C138.023,137.5 138.492,137.528 138.797,137.75L143.039,140.639C143.344,140.861 143.391,141.167 143.109,141.361L138.703,144.389C138.422,144.583 137.953,144.556 137.648,144.333L133.406,141.444C133.078,141.222 133.055,140.889 133.336,140.722Z" style="fill:rgb(235,235,235);fill-rule:nonzero;"/>
                                    <path d="M127.359,144.806L131.766,141.778C132.047,141.583 132.516,141.611 132.82,141.833L137.039,144.722C137.344,144.944 137.391,145.25 137.109,145.444L132.703,148.472C132.422,148.667 131.953,148.639 131.648,148.417L127.43,145.528C127.125,145.306 127.078,144.972 127.359,144.806Z" style="fill:rgb(235,235,235);fill-rule:nonzero;"/>
                                    <path d="M121.383,148.889L125.789,145.861C126.047,145.667 126.539,145.694 126.844,145.917L131.062,148.806C131.367,149.028 131.414,149.333 131.133,149.528L126.727,152.556C126.445,152.75 125.977,152.722 125.672,152.5L121.453,149.611C121.148,149.389 121.102,149.056 121.383,148.889Z" style="fill:rgb(235,235,235);fill-rule:nonzero;"/>
                                    <path d="M115.406,152.972L119.813,149.944C120.094,149.75 120.563,149.778 120.867,150L125.086,152.889C125.391,153.111 125.438,153.417 125.156,153.611L120.75,156.639C120.469,156.833 120,156.806 119.695,156.583L115.477,153.694C115.172,153.472 115.125,153.167 115.406,152.972Z" style="fill:rgb(235,235,235);fill-rule:nonzero;"/>
                                    <path d="M109.43,157.056L113.836,154.028C114.094,153.833 114.586,153.861 114.891,154.083L119.109,156.972C119.414,157.194 119.461,157.5 119.18,157.694L114.773,160.722C114.492,160.917 114.023,160.889 113.719,160.667L109.5,157.778C109.195,157.556 109.172,157.25 109.43,157.056Z" style="fill:rgb(235,235,235);fill-rule:nonzero;"/>
                                    <path d="M103.453,161.139L107.859,158.111C108.141,157.917 108.609,157.944 108.914,158.167L113.156,161.056C113.461,161.278 113.508,161.583 113.227,161.778L108.82,164.806C108.539,165 108.07,164.972 107.766,164.75L103.547,161.861C103.219,161.639 103.195,161.333 103.453,161.139Z" style="fill:rgb(235,235,235);fill-rule:nonzero;"/>
                                    <path d="M97.477,165.222L101.883,162.194C102.164,162 102.633,162.028 102.938,162.25L107.156,165.139C107.461,165.361 107.508,165.667 107.227,165.861L102.844,168.889C102.563,169.083 102.094,169.056 101.789,168.833L97.57,165.944C97.242,165.75 97.219,165.417 97.477,165.222Z" style="fill:rgb(235,235,235);fill-rule:nonzero;"/>
                                </g>
                                <g>
                                    <path d="M166.172,126.361L177.867,118.361C178.148,118.167 178.617,118.194 178.922,118.417L183.141,121.306C183.445,121.528 183.492,121.833 183.211,122.028L171.516,130.028C171.258,130.222 170.766,130.194 170.461,129.972L166.242,127.083C165.938,126.861 165.891,126.556 166.172,126.361Z" style="fill:rgb(235,235,235);fill-rule:nonzero;"/>
                                    <path d="M160.195,130.444L164.602,127.417C164.883,127.222 165.352,127.25 165.656,127.472L169.875,130.361C170.18,130.583 170.227,130.889 169.945,131.083L165.539,134.111C165.281,134.306 164.789,134.278 164.484,134.056L160.266,131.167C159.961,130.944 159.914,130.639 160.195,130.444Z" style="fill:rgb(235,235,235);fill-rule:nonzero;"/>
                                    <path d="M154.219,134.528L158.625,131.5C158.906,131.306 159.375,131.333 159.68,131.556L163.898,134.444C164.203,134.667 164.25,134.972 163.969,135.167L159.563,138.194C159.305,138.389 158.812,138.361 158.508,138.139L154.289,135.25C153.984,135.056 153.938,134.722 154.219,134.528Z" style="fill:rgb(235,235,235);fill-rule:nonzero;"/>
                                    <path d="M148.242,138.611L152.648,135.583C152.906,135.389 153.398,135.417 153.703,135.639L157.922,138.528C158.227,138.75 158.273,139.056 157.992,139.25L153.586,142.278C153.305,142.472 152.836,142.444 152.531,142.222L148.313,139.333C148.008,139.139 147.984,138.806 148.242,138.611Z" style="fill:rgb(235,235,235);fill-rule:nonzero;"/>
                                    <path d="M142.266,142.722L146.672,139.694C146.953,139.5 147.422,139.528 147.727,139.75L151.945,142.639C152.25,142.861 152.297,143.167 152.016,143.361L147.633,146.389C147.352,146.583 146.883,146.556 146.578,146.333L142.359,143.444C142.031,143.222 142.008,142.889 142.266,142.722Z" style="fill:rgb(235,235,235);fill-rule:nonzero;"/>
                                    <path d="M136.289,146.806L140.695,143.778C140.953,143.583 141.445,143.611 141.75,143.833L145.969,146.722C146.273,146.944 146.32,147.25 146.039,147.444L141.633,150.472C141.375,150.667 140.883,150.639 140.578,150.417L136.359,147.528C136.055,147.306 136.031,146.972 136.289,146.806Z" style="fill:rgb(235,235,235);fill-rule:nonzero;"/>
                                    <path d="M130.313,150.889L134.719,147.861C134.977,147.667 135.469,147.694 135.773,147.917L139.992,150.806C140.297,151.028 140.344,151.333 140.062,151.528L135.656,154.556C135.375,154.75 134.906,154.722 134.602,154.5L130.383,151.611C130.078,151.389 130.055,151.083 130.313,150.889Z" style="fill:rgb(235,235,235);fill-rule:nonzero;"/>
                                    <path d="M124.359,154.972L128.766,151.944C129.047,151.75 129.516,151.778 129.82,152L134.039,154.889C134.344,155.111 134.391,155.417 134.109,155.611L129.703,158.639C129.422,158.833 128.953,158.806 128.648,158.583L124.43,155.694C124.102,155.472 124.078,155.167 124.359,154.972Z" style="fill:rgb(235,235,235);fill-rule:nonzero;"/>
                                    <path d="M118.383,159.056L122.789,156.028C123.07,155.833 123.539,155.861 123.844,156.083L128.063,158.972C128.367,159.194 128.414,159.5 128.133,159.694L123.727,162.722C123.445,162.917 122.977,162.889 122.672,162.667L118.453,159.778C118.148,159.556 118.102,159.25 118.383,159.056Z" style="fill:rgb(235,235,235);fill-rule:nonzero;"/>
                                    <path d="M112.406,163.139L116.813,160.111C117.094,159.917 117.563,159.944 117.867,160.167L122.086,163.056C122.391,163.278 122.438,163.583 122.156,163.778L117.75,166.806C117.469,167 117,166.972 116.695,166.75L112.477,163.861C112.172,163.667 112.125,163.333 112.406,163.139Z" style="fill:rgb(235,235,235);fill-rule:nonzero;"/>
                                    <path d="M106.43,167.25L110.836,164.222C111.117,164.028 111.586,164.056 111.891,164.278L116.109,167.167C116.414,167.389 116.461,167.694 116.18,167.889L111.797,170.917C111.539,171.111 111.047,171.083 110.742,170.861L106.523,167.972C106.195,167.75 106.148,167.417 106.43,167.25Z" style="fill:rgb(235,235,235);fill-rule:nonzero;"/>
                                    <path d="M93.141,176.333L104.883,168.306C105.164,168.111 105.633,168.139 105.938,168.361L110.156,171.25C110.461,171.472 110.508,171.778 110.227,171.972L98.484,180C98.203,180.194 97.734,180.167 97.43,179.944L93.187,177.056C92.906,176.833 92.859,176.528 93.141,176.333Z" style="fill:rgb(235,235,235);fill-rule:nonzero;"/>
                                </g>
                                <g>
                                    <path d="M124.313,163.111L152.625,143.75C152.906,143.556 153.375,143.583 153.68,143.806L157.898,146.694C158.203,146.917 158.25,147.222 157.969,147.417L129.656,166.778C129.375,166.972 128.906,166.944 128.602,166.722L124.383,163.833C124.078,163.639 124.031,163.306 124.313,163.111Z" style="fill:rgb(235,235,235);fill-rule:nonzero;"/>
                                    <path d="M161.461,137.694L165.867,134.667C166.125,134.472 166.617,134.5 166.922,134.722L171.141,137.611C171.445,137.833 171.492,138.139 171.211,138.333L166.805,141.361C166.523,141.556 166.055,141.528 165.75,141.306L161.531,138.417C161.227,138.222 161.18,137.889 161.461,137.694Z" style="fill:rgb(235,235,235);fill-rule:nonzero;"/>
                                    <path d="M154.172,142.694L159.891,138.778C160.172,138.583 160.641,138.611 160.945,138.833L165.164,141.722C165.469,141.944 165.516,142.25 165.234,142.444L159.516,146.361C159.258,146.556 158.766,146.528 158.461,146.306L154.242,143.417C153.938,143.194 153.914,142.861 154.172,142.694Z" style="fill:rgb(235,235,235);fill-rule:nonzero;"/>
                                    <path d="M115.477,169.167L111.07,172.194C110.812,172.389 110.836,172.694 111.141,172.917L115.359,175.806C115.664,176.028 116.133,176.056 116.414,175.861L120.82,172.833C121.078,172.639 121.055,172.333 120.75,172.111L116.508,169.222C116.227,169 115.734,168.972 115.477,169.167Z" style="fill:rgb(235,235,235);fill-rule:nonzero;"/>
                                    <path d="M122.742,164.194L117.023,168.111C116.766,168.306 116.789,168.611 117.094,168.833L121.313,171.722C121.617,171.944 122.086,171.972 122.367,171.778L128.086,167.861C128.367,167.667 128.32,167.361 128.016,167.139L123.773,164.25C123.492,164.028 123.023,164 122.742,164.194Z" style="fill:rgb(235,235,235);fill-rule:nonzero;"/>
                                    <path d="M179.367,125.444L183.773,122.417C184.055,122.222 184.523,122.25 184.828,122.472L189.047,125.361C189.352,125.583 189.398,125.889 189.117,126.083L184.711,129.111C184.43,129.306 183.961,129.278 183.656,129.056L179.437,126.167C179.133,125.944 179.109,125.639 179.367,125.444Z" style="fill:rgb(235,235,235);fill-rule:nonzero;"/>
                                    <path d="M173.414,129.528L177.82,126.5C178.078,126.306 178.57,126.333 178.875,126.556L183.094,129.444C183.398,129.667 183.445,129.972 183.164,130.167L178.758,133.194C178.5,133.389 178.008,133.361 177.703,133.139L173.461,130.25C173.156,130.028 173.133,129.722 173.414,129.528Z" style="fill:rgb(235,235,235);fill-rule:nonzero;"/>
                                    <path d="M167.438,133.611L171.844,130.583C172.102,130.389 172.594,130.417 172.898,130.639L177.141,133.528C177.445,133.75 177.492,134.056 177.211,134.25L172.805,137.278C172.523,137.472 172.055,137.444 171.75,137.222L167.531,134.333C167.203,134.139 167.156,133.806 167.438,133.611Z" style="fill:rgb(235,235,235);fill-rule:nonzero;"/>
                                    <path d="M99.07,180.389L109.5,173.25C109.781,173.056 110.25,173.083 110.555,173.306L114.773,176.194C115.078,176.417 115.125,176.722 114.844,176.917L104.414,184.056C104.156,184.25 103.664,184.222 103.359,184L99.141,181.111C98.836,180.889 98.813,180.583 99.07,180.389Z" style="fill:rgb(235,235,235);fill-rule:nonzero;"/>
                                </g>
                                <g>
                                    <path d="M79.125,160.778L74.719,163.806C74.438,164 73.969,163.972 73.664,163.75L71.555,162.306C71.25,162.083 71.203,161.778 71.484,161.583L75.891,158.556C76.172,158.361 76.641,158.389 76.945,158.611L79.055,160.056C79.359,160.25 79.383,160.583 79.125,160.778Z" style="fill:rgb(235,235,235);fill-rule:nonzero;"/>
                                    <path d="M85.078,156.667L80.672,159.694C80.414,159.889 79.922,159.861 79.617,159.639L77.508,158.194C77.203,157.972 77.156,157.667 77.438,157.472L81.844,154.444C82.125,154.25 82.594,154.278 82.898,154.5L85.008,155.944C85.336,156.167 85.359,156.5 85.078,156.667Z" style="fill:rgb(235,235,235);fill-rule:nonzero;"/>
                                    <path d="M91.055,152.583L86.648,155.611C86.367,155.806 85.898,155.778 85.594,155.556L83.484,154.111C83.18,153.889 83.133,153.583 83.414,153.389L87.82,150.361C88.102,150.167 88.57,150.194 88.875,150.417L90.984,151.861C91.289,152.083 91.336,152.417 91.055,152.583Z" style="fill:rgb(235,235,235);fill-rule:nonzero;"/>
                                    <path d="M97.031,148.5L92.625,151.528C92.367,151.722 91.875,151.694 91.57,151.472L89.461,150.028C89.156,149.806 89.109,149.5 89.391,149.306L93.797,146.278C94.078,146.083 94.547,146.111 94.852,146.333L96.961,147.778C97.266,148 97.313,148.306 97.031,148.5Z" style="fill:rgb(235,235,235);fill-rule:nonzero;"/>
                                    <path d="M103.008,144.417L98.602,147.444C98.32,147.639 97.852,147.611 97.547,147.389L95.438,145.944C95.133,145.722 95.086,145.417 95.367,145.222L99.773,142.194C100.031,142 100.523,142.028 100.828,142.25L102.938,143.694C103.242,143.917 103.289,144.222 103.008,144.417Z" style="fill:rgb(235,235,235);fill-rule:nonzero;"/>
                                    <path d="M108.984,140.333L104.578,143.361C104.297,143.556 103.828,143.528 103.523,143.306L101.414,141.861C101.109,141.639 101.063,141.333 101.344,141.139L105.75,138.111C106.031,137.917 106.5,137.944 106.805,138.167L108.914,139.611C109.219,139.833 109.242,140.139 108.984,140.333Z" style="fill:rgb(235,235,235);fill-rule:nonzero;"/>
                                    <path d="M114.961,136.25L110.555,139.278C110.273,139.472 109.805,139.444 109.5,139.222L107.391,137.778C107.086,137.556 107.039,137.25 107.32,137.056L111.727,134.028C111.984,133.833 112.477,133.861 112.781,134.083L114.891,135.528C115.195,135.722 115.219,136.056 114.961,136.25Z" style="fill:rgb(235,235,235);fill-rule:nonzero;"/>
                                    <path d="M120.938,132.167L116.531,135.194C116.25,135.389 115.781,135.361 115.477,135.139L113.367,133.694C113.063,133.472 113.016,133.167 113.297,132.972L117.703,129.944C117.984,129.75 118.453,129.778 118.758,130L120.867,131.444C121.172,131.639 121.195,131.972 120.938,132.167Z" style="fill:rgb(235,235,235);fill-rule:nonzero;"/>
                                    <path d="M126.914,128.056L122.508,131.083C122.227,131.278 121.758,131.25 121.453,131.028L119.344,129.583C119.039,129.361 118.992,129.056 119.273,128.861L123.68,125.833C123.961,125.639 124.43,125.667 124.734,125.889L126.844,127.333C127.148,127.556 127.172,127.889 126.914,128.056Z" style="fill:rgb(235,235,235);fill-rule:nonzero;"/>
                                    <path d="M132.867,123.972L128.461,127C128.203,127.194 127.711,127.167 127.406,126.944L125.297,125.5C124.992,125.278 124.945,124.972 125.227,124.778L129.633,121.75C129.914,121.556 130.383,121.583 130.688,121.806L132.797,123.25C133.102,123.472 133.148,123.806 132.867,123.972Z" style="fill:rgb(235,235,235);fill-rule:nonzero;"/>
                                    <path d="M138.844,119.889L134.438,122.917C134.156,123.111 133.688,123.083 133.383,122.861L131.273,121.417C130.969,121.194 130.922,120.889 131.203,120.694L135.609,117.667C135.891,117.472 136.359,117.5 136.664,117.722L138.773,119.167C139.078,119.389 139.125,119.694 138.844,119.889Z" style="fill:rgb(235,235,235);fill-rule:nonzero;"/>
                                    <path d="M144.82,115.806L140.414,118.833C140.156,119.028 139.664,119 139.359,118.778L137.25,117.333C136.945,117.111 136.898,116.806 137.18,116.611L141.586,113.583C141.867,113.389 142.336,113.417 142.641,113.639L144.75,115.083C145.055,115.306 145.102,115.611 144.82,115.806Z" style="fill:rgb(235,235,235);fill-rule:nonzero;"/>
                                    <path d="M150.797,111.722L146.391,114.75C146.133,114.944 145.641,114.917 145.336,114.694L143.227,113.25C142.922,113.028 142.875,112.722 143.156,112.528L147.563,109.5C147.844,109.306 148.313,109.333 148.617,109.556L150.727,111C151.031,111.194 151.078,111.528 150.797,111.722Z" style="fill:rgb(235,235,235);fill-rule:nonzero;"/>
                                    <path d="M159.469,105.778L152.344,110.639C152.063,110.833 151.594,110.806 151.289,110.583L149.18,109.139C148.875,108.917 148.828,108.611 149.109,108.417L156.234,103.556C156.516,103.361 156.984,103.389 157.289,103.611L159.398,105.056C159.703,105.278 159.75,105.583 159.469,105.778Z" style="fill:rgb(235,235,235);fill-rule:nonzero;"/>
                                </g>
                            </g>
                            <path d="M181.781,169.528L167.391,179.361C167.016,179.639 166.992,180.056 167.391,180.306L183.188,169.5C182.789,169.278 182.156,169.278 181.781,169.528Z" style="fill:rgb(235,235,235);fill-rule:nonzero;"/>
                            <path d="M147.352,104.778L72.75,155.833L71.742,155.139L146.344,104.083L147.352,104.778Z" style="fill:rgb(235,235,235);fill-rule:nonzero;"/>
                        </g>
                    </g>
                    <g>
                        <g>
                            <path d="M61.266,156.5L61.266,77.444C61.266,73 62.484,70.833 64.922,69.139L153.141,8.75C154.031,8.139 154.875,7.917 155.508,8.222C155.508,8.222 154.031,7.194 153.891,7.139C153.258,6.861 152.438,7.083 151.547,7.694L63.328,68.056C60.891,69.75 59.672,71.917 59.672,76.361L59.672,155.444C59.672,157.583 60.164,158.778 60.938,159.194L62.273,160.083C61.641,159.528 61.266,158.389 61.266,156.5Z" style="fill:rgb(235,235,235);fill-rule:nonzero;"/>
                        </g>
                        <g>
                            <path d="M153.141,99.417L64.922,159.778C62.906,161.167 61.266,160.361 61.266,156.5L61.266,77.444C61.266,73 62.484,70.833 64.922,69.139L153.141,8.75C155.156,7.361 156.797,7.972 156.797,12.028L156.797,91.111C156.82,96.278 155.367,97.917 153.141,99.417Z" style="fill:rgb(235,235,235);fill-rule:nonzero;"/>
                            <path d="M153.398,9.222L64.664,69.917C63.023,71.028 61.711,73.75 61.711,75.972L61.711,157.333C61.711,159.556 63.047,160.444 64.664,159.333L153.375,98.639C155.016,97.528 156.352,94.806 156.352,92.583L156.352,11.222C156.352,9 155.016,8.083 153.398,9.222Z" style="fill:white;fill-rule:nonzero;"/>
                            <g>
                                <path d="M65.133,150.333L65.133,74.25L152.93,14.167L152.93,90.25L65.133,150.333Z" style="fill:rgb(235,235,235);fill-rule:nonzero;"/>
                            </g>
                            <path d="M65.133,74.25L65.133,150.333L152.93,14.167L65.133,74.25Z" style="fill:rgb(235,235,235);fill-rule:nonzero;"/>
                        </g>
                    </g>
                </g>
            </g>
            <path d="M185.719,159.861L179.602,155.667L179.672,155.611L167.484,147.278C166.758,146.778 165.586,146.778 164.836,147.278L135.328,167.472C134.602,167.972 134.602,168.778 135.328,169.278L147.516,177.611L147.586,177.583L153.844,181.861C154.57,182.361 155.742,182.361 156.492,181.861L185.719,161.667C186.445,161.167 186.445,160.361 185.719,159.861Z" style="fill:rgb(235,235,235);fill-rule:nonzero;"/>
            <g>
                <path d="M76.078,176.028L71.508,172.889C71.391,172.806 71.273,172.583 71.273,172.389L71.273,170.917C71.273,170.722 71.367,170.639 71.508,170.722L76.078,173.861C76.195,173.944 76.313,174.167 76.313,174.361L76.313,175.833C76.289,176.028 76.195,176.111 76.078,176.028Z" style="fill:rgb(235,235,235);fill-rule:nonzero;"/>
                <path d="M76.148,175.972L71.578,172.833C71.461,172.75 71.344,172.528 71.344,172.333L71.344,170.861C71.344,170.778 71.367,170.722 71.391,170.694C71.32,170.694 71.25,170.778 71.25,170.917L71.25,172.389C71.25,172.583 71.344,172.806 71.484,172.889L76.055,176.028C76.125,176.083 76.195,176.056 76.242,176C76.219,176 76.195,176 76.148,175.972Z" style="fill:rgb(235,235,235);fill-rule:nonzero;"/>
            </g>
            <g>
                <path d="M82.031,180.028L77.461,176.889C77.344,176.806 77.227,176.583 77.227,176.361L77.227,174.889C77.227,174.694 77.32,174.611 77.461,174.694L82.031,177.833C82.148,177.917 82.266,178.139 82.266,178.361L82.266,179.833C82.266,180.028 82.148,180.139 82.031,180.028Z" style="fill:rgb(235,235,235);fill-rule:nonzero;"/>
            </g>
            <g>
                <path d="M67.359,168.167C67.687,168.389 67.969,168.972 67.969,169.417C67.969,169.889 67.688,170.056 67.359,169.833C67.031,169.611 66.75,169.028 66.75,168.583C66.75,168.111 67.008,167.917 67.359,168.167Z" style="fill:rgb(235,235,235);fill-rule:nonzero;"/>
                <path d="M67.406,169.722C67.078,169.5 66.797,168.917 66.797,168.472C66.797,168.361 66.82,168.278 66.844,168.194C66.773,168.278 66.727,168.389 66.727,168.556C66.727,169.028 67.008,169.583 67.336,169.806C67.594,169.972 67.805,169.917 67.898,169.667C67.805,169.833 67.641,169.889 67.406,169.722Z" style="fill:rgb(235,235,235);fill-rule:nonzero;"/>
            </g>
        </g>
    </g>
    <g transform="matrix(1.62944,-0.144323,0.144323,1.62944,4.36984,39.7661)">
        <path d="M22.836,20.959L30.469,33.837L25.44,42.284L25.439,42.282L25.43,42.317L9.524,15.601L19.646,15.601L22.836,20.959ZM32.603,30.252L27.554,21.732L31.223,15.568L41.346,15.568L32.603,30.252Z" style="fill:rgb(102,98,255);"/>
    </g>
</svg>
